<svg width="16" height="16" viewBox="0 0 16 16" fill="none" xmlns="http://www.w3.org/2000/svg">
<g clip-path="url(#clip0_210_2078)">
<path d="M11.3334 2.22664C12.3389 2.80721 13.1754 3.64032 13.7599 4.6435C14.3445 5.64668 14.657 6.78515 14.6664 7.94619C14.6757 9.10724 14.3817 10.2506 13.8134 11.2631C13.2451 12.2756 12.4222 13.1221 11.4262 13.7188C10.4302 14.3156 9.2956 14.6418 8.13474 14.6653C6.97388 14.6888 5.82701 14.4087 4.80766 13.8528C3.78832 13.2968 2.93185 12.4843 2.32304 11.4956C1.71423 10.507 1.37419 9.37644 1.33659 8.21597L1.33325 7.99997L1.33659 7.78397C1.37392 6.63263 1.70896 5.51061 2.30902 4.5273C2.90909 3.54398 3.75372 2.73294 4.76056 2.17322C5.76739 1.61351 6.90208 1.32423 8.05401 1.33359C9.20593 1.34295 10.3358 1.65063 11.3334 2.22664ZM7.00732 6.0933C6.86764 6.01015 6.70239 5.9809 6.54266 6.01105C6.38292 6.04121 6.2397 6.12868 6.13994 6.25702C6.04018 6.38537 5.99075 6.54574 6.00095 6.70797C6.01115 6.8702 6.08027 7.02312 6.19531 7.13797L7.05666 7.99997L6.19531 8.86197L6.13998 8.92463C6.03637 9.05863 5.98765 9.22704 6.00371 9.39565C6.01977 9.56427 6.09942 9.72045 6.22646 9.83247C6.35351 9.94449 6.51843 10.004 6.68773 9.99879C6.85703 9.99362 7.01802 9.9242 7.13799 9.80463L8 8.9433L8.86201 9.80463L8.92468 9.85997C9.05868 9.96357 9.22709 10.0123 9.3957 9.99623C9.56432 9.98017 9.7205 9.90053 9.83253 9.77349C9.94455 9.64644 10.004 9.48152 9.99884 9.31222C9.99367 9.14292 9.92426 8.98194 9.80469 8.86197L8.94335 7.99997L9.80469 7.13797L9.86002 7.0753C9.96363 6.94131 10.0124 6.7729 9.99629 6.60428C9.98023 6.43567 9.90059 6.27949 9.77354 6.16747C9.6465 6.05544 9.48158 5.99598 9.31227 6.00115C9.14297 6.00632 8.98199 6.07574 8.86201 6.1953L8 7.05663L7.13799 6.1953L7.07532 6.13997L7.00732 6.0933Z" fill="#9198A1"/>
</g>
<defs>
<clipPath id="clip0_210_2078">
<rect width="16" height="16" fill="white"/>
</clipPath>
</defs>
</svg>
