<svg width="16" height="16" viewBox="0 0 16 16" fill="none" xmlns="http://www.w3.org/2000/svg">
<path d="M1.5 1.75V13.5H15.25C15.4489 13.5 15.6397 13.579 15.7803 13.7197C15.921 13.8603 16 14.0511 16 14.25C16 14.4489 15.921 14.6397 15.7803 14.7803C15.6397 14.921 15.4489 15 15.25 15H0.75C0.551088 15 0.360322 14.921 0.21967 14.7803C0.0790176 14.6397 0 14.4489 0 14.25L0 1.75C0 1.55109 0.0790176 1.36032 0.21967 1.21967C0.360322 1.07902 0.551088 1 0.75 1C0.948912 1 1.13968 1.07902 1.28033 1.21967C1.42098 1.36032 1.5 1.55109 1.5 1.75ZM15.78 4.28L10.53 9.53C10.3894 9.67045 10.1988 9.74934 10 9.74934C9.80125 9.74934 9.61063 9.67045 9.47 9.53L7 7.06L4.28 9.78C4.13774 9.91241 3.94969 9.98451 3.75537 9.98116C3.56105 9.9778 3.3756 9.89924 3.238 9.762C3.10076 9.6244 3.0222 9.43895 3.01884 9.24463C3.01549 9.05031 3.08759 8.86226 3.22 8.72L6.47 5.47C6.61063 5.32955 6.80125 5.25066 7 5.25066C7.19875 5.25066 7.38937 5.32955 7.53 5.47L10 7.94L14.72 3.22C14.8623 3.08759 15.0503 3.01549 15.2446 3.01884C15.4389 3.0222 15.6244 3.10076 15.762 3.238C15.8992 3.3756 15.9778 3.56105 15.9812 3.75537C15.9845 3.94969 15.9124 4.13774 15.78 4.28Z" fill="#8B949E"/>
</svg>
