<svg width="16" height="16" viewBox="0 0 16 16" fill="none" xmlns="http://www.w3.org/2000/svg">
<g clip-path="url(#clip0_258_2071)">
<path d="M2 4.66665C2 4.31302 2.14048 3.97389 2.39052 3.72384C2.64057 3.47379 2.97971 3.33331 3.33333 3.33331H12.6667C13.0203 3.33331 13.3594 3.47379 13.6095 3.72384C13.8595 3.97389 14 4.31302 14 4.66665V11.3333C14 11.6869 13.8595 12.0261 13.6095 12.2761C13.3594 12.5262 13.0203 12.6666 12.6667 12.6666H3.33333C2.97971 12.6666 2.64057 12.5262 2.39052 12.2761C2.14048 12.0261 2 11.6869 2 11.3333V4.66665Z" stroke="#9198A1" stroke-width="2" stroke-linecap="round" stroke-linejoin="round"/>
<path d="M2 4.66669L8 8.66669L14 4.66669" stroke="#9198A1" stroke-width="2" stroke-linecap="round" stroke-linejoin="round"/>
</g>
<defs>
<clipPath id="clip0_258_2071">
<rect width="16" height="16" fill="white"/>
</clipPath>
</defs>
</svg>
