<svg width="16" height="16" viewBox="0 0 16 16" fill="none" xmlns="http://www.w3.org/2000/svg">
<path d="M10.68 11.74C9.47433 12.6758 7.95739 13.117 6.43792 12.9738C4.91845 12.8305 3.51067 12.1137 2.50113 10.969C1.4916 9.82442 0.956198 8.33811 1.00391 6.81265C1.05163 5.2872 1.67887 3.83725 2.75797 2.75797C3.83725 1.67887 5.2872 1.05163 6.81265 1.00391C8.33811 0.956198 9.82442 1.4916 10.969 2.50113C12.1137 3.51067 12.8305 4.91845 12.9738 6.43792C13.117 7.95739 12.6758 9.47433 11.74 10.68L14.78 13.72C14.8787 13.8116 14.9509 13.9282 14.9889 14.0575C15.0269 14.1867 15.0293 14.3238 14.996 14.4544C14.9626 14.5849 14.8946 14.704 14.7992 14.7991C14.7039 14.8943 14.5846 14.9619 14.454 14.995C14.3236 15.0284 14.1866 15.0261 14.0575 14.9882C13.9283 14.9504 13.8117 14.8784 13.72 14.78L10.68 11.74ZM11.5 6.99997C11.5089 6.40357 11.3991 5.81136 11.177 5.25779C10.9549 4.70421 10.625 4.20032 10.2064 3.77542C9.78776 3.35053 9.28884 3.01311 8.73864 2.78281C8.18844 2.5525 7.59793 2.43389 7.00147 2.43389C6.40501 2.43389 5.8145 2.5525 5.26429 2.78281C4.71409 3.01311 4.21517 3.35053 3.79657 3.77542C3.37796 4.20032 3.04802 4.70421 2.82594 5.25779C2.60386 5.81136 2.49407 6.40357 2.50297 6.99997C2.52058 8.18143 3.00228 9.30853 3.844 10.1378C4.68571 10.9671 5.81988 11.4319 7.00147 11.4319C8.18306 11.4319 9.31722 10.9671 10.1589 10.1378C11.0007 9.30853 11.4824 8.18143 11.5 6.99997Z" fill="#9198A1"/>
</svg>
