<svg width="373" height="359" viewBox="0 0 373 359" fill="none" xmlns="http://www.w3.org/2000/svg">
<mask id="mask0_53_6008" style="mask-type:luminance" maskUnits="userSpaceOnUse" x="0" y="91" width="373" height="225">
<path d="M324.027 315.33H309.294C333.904 315.33 353.915 294.444 352.861 269.233C352.168 252.681 342.59 238.489 328.894 231.544C331.049 227.14 333.052 222.466 334.861 217.508C343.547 219.434 351.363 223.757 357.617 229.769C366.525 238.336 372.263 250.331 372.821 263.703C374.003 291.937 351.59 315.33 324.027 315.33ZM50.7606 312.809C16.4553 303.138 -7.1506 266.973 2.18724 227.118C4.09084 218.994 7.38632 211.431 11.8024 204.71C21.092 190.572 35.3389 180.155 52.0087 176.052C57.8026 174.627 63.5178 173.95 69.0771 173.95C79.7428 173.95 89.8382 176.435 98.8525 180.868C99.9872 181.427 101.175 181.688 102.338 181.688C105.839 181.688 109.119 179.323 110.065 175.564C120.737 133.149 155.085 100.489 197.798 93.2887L203.788 93.7549C203.807 93.7576 203.825 93.7576 203.844 93.7576C204.131 93.7576 204.392 93.5875 204.509 93.3222L204.939 92.3322C208.452 91.9826 212.01 91.8031 215.614 91.8031C244.048 91.8031 269.94 102.967 289.347 121.251C281.383 118.411 273.699 114.713 267.255 109.896C266.276 109.165 264.939 108.582 263.736 108.582C263.003 108.582 262.32 108.798 261.8 109.331C257.038 114.203 251.669 118.356 246.034 121.833C235.577 117.898 224.283 115.75 212.495 115.75C167.165 115.75 129.076 147.526 118.253 190.537C117.409 193.894 114.481 196.004 111.355 196.004C110.316 196.004 109.255 195.771 108.242 195.273C100.195 191.314 91.1792 189.097 81.6571 189.097C76.6938 189.097 71.5903 189.7 66.417 190.974C44.4575 196.378 27.208 214.053 21.9329 236.568C15.0119 266.108 28.3613 293.379 50.6169 306.731L50.7606 312.809Z" fill="white"/>
</mask>
<g mask="url(#mask0_53_6008)">
<path d="M324.027 315.33H309.294C333.904 315.33 353.915 294.444 352.861 269.233C352.168 252.681 342.59 238.489 328.894 231.544C331.049 227.14 333.052 222.466 334.861 217.508C343.547 219.434 351.363 223.757 357.617 229.769C366.525 238.336 372.263 250.331 372.821 263.703C374.003 291.937 351.59 315.33 324.027 315.33ZM50.7606 312.809C16.4553 303.138 -7.1506 266.973 2.18724 227.118C4.09084 218.994 7.38632 211.431 11.8024 204.71C21.092 190.572 35.3389 180.155 52.0087 176.052C57.8026 174.627 63.5178 173.95 69.0771 173.95C79.7428 173.95 89.8382 176.435 98.8525 180.868C99.9872 181.427 101.175 181.688 102.338 181.688C105.839 181.688 109.119 179.323 110.065 175.564C120.737 133.149 155.085 100.489 197.798 93.2887L203.788 93.7549C203.807 93.7576 203.825 93.7576 203.844 93.7576C204.131 93.7576 204.392 93.5875 204.509 93.3222L204.939 92.3322C208.452 91.9826 212.01 91.8031 215.614 91.8031C244.048 91.8031 269.94 102.967 289.347 121.251C281.383 118.411 273.699 114.713 267.255 109.896C266.276 109.165 264.939 108.582 263.736 108.582C263.003 108.582 262.32 108.798 261.8 109.331C257.038 114.203 251.669 118.356 246.034 121.833C235.577 117.898 224.283 115.75 212.495 115.75C167.165 115.75 129.076 147.526 118.253 190.537C117.409 193.894 114.481 196.004 111.355 196.004C110.316 196.004 109.255 195.771 108.242 195.273C100.195 191.314 91.1792 189.097 81.6571 189.097C76.6938 189.097 71.5903 189.7 66.417 190.974C44.4575 196.378 27.208 214.053 21.9329 236.568C15.0119 266.108 28.3613 293.379 50.6169 306.731L50.7606 312.809Z" fill="url(#paint0_linear_53_6008)"/>
</g>
<mask id="mask1_53_6008" style="mask-type:luminance" maskUnits="userSpaceOnUse" x="20" y="115" width="333" height="201">
<path d="M309.294 315.33H262.846L263.155 294.039C263.81 294.311 264.509 294.449 265.211 294.449C265.991 294.449 266.772 294.279 267.496 293.936C276.959 289.454 309.2 271.796 328.894 231.544C342.59 238.489 352.169 252.681 352.861 269.233C353.915 294.444 333.904 315.33 309.294 315.33ZM50.6169 306.731C28.3613 293.379 15.0119 266.108 21.9329 236.568C27.2081 214.053 44.4576 196.378 66.4171 190.974C71.5903 189.7 76.6939 189.097 81.6572 189.097C91.1792 189.097 100.195 191.314 108.242 195.273C109.255 195.771 110.316 196.004 111.355 196.004C114.481 196.004 117.409 193.894 118.253 190.537C129.076 147.526 167.165 115.75 212.495 115.75C224.283 115.75 235.577 117.898 246.034 121.833C230.065 131.688 211.965 136.114 199.51 136.114C198.093 136.114 196.747 136.056 195.488 135.942C195.327 135.929 195.167 135.921 195.008 135.921C193.656 135.921 192.349 136.434 191.355 137.365C190.243 138.407 189.629 139.873 189.664 141.396C190.211 165.138 189.576 193.266 199.892 221.395L58.4656 217.736C58.3836 217.733 58.3016 217.733 58.2198 217.733C55.7124 217.733 53.3032 218.726 51.5237 220.499C49.686 222.331 48.6805 224.836 48.7418 227.428L50.6169 306.731Z" fill="white"/>
</mask>
<g mask="url(#mask1_53_6008)">
<path d="M309.294 315.33H262.846L263.155 294.039C263.81 294.311 264.509 294.449 265.211 294.449C265.991 294.449 266.772 294.279 267.496 293.936C276.959 289.454 309.2 271.796 328.894 231.544C342.59 238.489 352.169 252.681 352.861 269.233C353.915 294.444 333.904 315.33 309.294 315.33ZM50.6169 306.731C28.3613 293.379 15.0119 266.108 21.9329 236.568C27.2081 214.053 44.4576 196.378 66.4171 190.974C71.5903 189.7 76.6939 189.097 81.6572 189.097C91.1792 189.097 100.195 191.314 108.242 195.273C109.255 195.771 110.316 196.004 111.355 196.004C114.481 196.004 117.409 193.894 118.253 190.537C129.076 147.526 167.165 115.75 212.495 115.75C224.283 115.75 235.577 117.898 246.034 121.833C230.065 131.688 211.965 136.114 199.51 136.114C198.093 136.114 196.747 136.056 195.488 135.942C195.327 135.929 195.167 135.921 195.008 135.921C193.656 135.921 192.349 136.434 191.355 137.365C190.243 138.407 189.629 139.873 189.664 141.396C190.211 165.138 189.576 193.266 199.892 221.395L58.4656 217.736C58.3836 217.733 58.3016 217.733 58.2198 217.733C55.7124 217.733 53.3032 218.726 51.5237 220.499C49.686 222.331 48.6805 224.836 48.7418 227.428L50.6169 306.731Z" fill="url(#paint1_linear_53_6008)"/>
</g>
<mask id="mask2_53_6008" style="mask-type:luminance" maskUnits="userSpaceOnUse" x="48" y="217" width="216" height="133">
<path d="M258.648 349.293H55.295C53.2267 349.293 51.5345 347.603 51.5345 345.537L50.7606 312.809L50.6169 306.731L48.7418 227.428C48.6804 224.836 49.686 222.331 51.5237 220.499C53.3032 218.726 55.7124 217.733 58.2198 217.733C58.3016 217.733 58.3836 217.733 58.4656 217.736L199.892 221.396C200.458 222.936 201.054 224.473 201.686 226.012L59.2472 222.191C59.1879 222.19 59.1284 222.189 59.0692 222.189C57.3095 222.189 55.6193 222.887 54.3699 224.132C53.0788 225.42 52.3686 227.183 52.4142 229.006L55.247 341.932C55.247 343.889 56.848 345.49 58.8048 345.49H253.744C255.701 345.49 257.302 343.889 257.302 341.932L258.071 290.886C259.479 291.81 260.911 292.726 262.378 293.64C262.628 293.795 262.887 293.928 263.155 294.039L262.846 315.33L262.51 338.566L262.408 345.537C262.408 347.603 260.716 349.293 258.648 349.293Z" fill="white"/>
</mask>
<g mask="url(#mask2_53_6008)">
<path d="M258.648 349.293H55.295C53.2267 349.293 51.5345 347.603 51.5345 345.537L50.7606 312.809L50.6169 306.731L48.7418 227.428C48.6804 224.836 49.686 222.331 51.5237 220.499C53.3032 218.726 55.7124 217.733 58.2198 217.733C58.3016 217.733 58.3836 217.733 58.4656 217.736L199.892 221.396C200.458 222.936 201.054 224.473 201.686 226.012L59.2472 222.191C59.1879 222.19 59.1284 222.189 59.0692 222.189C57.3095 222.189 55.6193 222.887 54.3699 224.132C53.0788 225.42 52.3686 227.183 52.4142 229.006L55.247 341.932C55.247 343.889 56.848 345.49 58.8048 345.49H253.744C255.701 345.49 257.302 343.889 257.302 341.932L258.071 290.886C259.479 291.81 260.911 292.726 262.378 293.64C262.628 293.795 262.887 293.928 263.155 294.039L262.846 315.33L262.51 338.566L262.408 345.537C262.408 347.603 260.716 349.293 258.648 349.293Z" fill="url(#paint2_linear_53_6008)"/>
</g>
<path d="M55.247 341.932C55.247 343.889 56.848 345.49 58.8048 345.49H253.744C255.701 345.49 257.302 343.889 257.302 341.932L258.899 235.845C258.711 229.46 253.114 227.165 249.721 227.301L59.2473 222.191C57.424 222.142 55.6613 222.845 54.37 224.132C53.0788 225.42 52.3686 227.183 52.4142 229.006L55.247 341.932Z" fill="#7D97F4"/>
<path d="M255.196 291.533H255.191C254.9 291.529 254.669 291.292 254.675 291.004L254.801 282.401C254.805 282.115 255.038 281.886 255.322 281.886H255.326C255.617 281.89 255.847 282.127 255.843 282.415L255.717 291.02C255.713 291.305 255.48 291.533 255.196 291.533Z" fill="white"/>
<path d="M255.505 270.45H255.497C255.209 270.446 254.979 270.209 254.984 269.921L255.468 236.969C255.458 235.011 254.865 233.448 253.701 232.335C251.531 230.254 248.085 230.36 247.939 230.368L187.06 228.735C186.772 228.727 186.544 228.487 186.552 228.201C186.56 227.913 186.781 227.668 187.088 227.693L247.931 229.326C248.31 229.303 251.979 229.24 254.423 231.582C255.797 232.899 256.499 234.713 256.51 236.974L256.026 269.937C256.022 270.221 255.789 270.45 255.505 270.45Z" fill="white"/>
<mask id="mask3_53_6008" style="mask-type:luminance" maskUnits="userSpaceOnUse" x="35" y="348" width="240" height="11">
<path d="M35.7949 358.995H274.026C274.442 358.995 274.782 358.653 274.782 358.237V349.484C274.782 349.067 274.442 348.727 274.026 348.727H35.7949C35.3784 348.727 35.0375 349.067 35.0375 349.484V358.237C35.0375 358.653 35.3784 358.995 35.7949 358.995Z" fill="white"/>
</mask>
<g mask="url(#mask3_53_6008)">
<path d="M35.7949 358.995H274.026C274.442 358.995 274.782 358.653 274.782 358.237V349.484C274.782 349.067 274.442 348.727 274.026 348.727H35.7949C35.3784 348.727 35.0375 349.067 35.0375 349.484V358.237C35.0375 358.653 35.3784 358.995 35.7949 358.995Z" fill="url(#paint3_linear_53_6008)"/>
</g>
<path d="M139.821 340.315H64.7642C61.9967 340.315 59.7534 338.071 59.7534 335.304V237.332C59.7534 234.489 62.1153 232.216 64.9558 232.324L140.012 235.198C142.704 235.299 144.831 237.511 144.831 240.204V335.304C144.831 338.071 142.589 340.315 139.821 340.315Z" fill="#91B3FA"/>
<path d="M124.892 277.365H75.1747C74.7809 277.365 74.4607 277.045 74.4607 276.651V271.472C74.4607 271.078 74.7809 270.758 75.1747 270.758H124.892C125.286 270.758 125.606 271.078 125.606 271.472V276.651C125.606 277.045 125.286 277.365 124.892 277.365Z" fill="#C9DAFD"/>
<path d="M124.993 287.917H75.2752C74.8813 287.917 74.5612 287.597 74.5612 287.202V282.024C74.5612 281.629 74.8813 281.309 75.2752 281.309H124.993C125.386 281.309 125.707 281.629 125.707 282.024V287.202C125.707 287.597 125.386 287.917 124.993 287.917Z" fill="#C9DAFD"/>
<path d="M125.293 298.689H75.5752C75.1814 298.689 74.8612 298.369 74.8612 297.975V292.796C74.8612 292.402 75.1814 292.082 75.5752 292.082H125.293C125.686 292.082 126.007 292.402 126.007 292.796V297.975C126.007 298.369 125.686 298.689 125.293 298.689Z" fill="#C9DAFD"/>
<path d="M125.393 309.24H75.6757C75.2819 309.24 74.9617 308.921 74.9617 308.526V303.347C74.9617 302.953 75.2819 302.633 75.6757 302.633H125.393C125.787 302.633 126.107 302.953 126.107 303.347V308.526C126.107 308.921 125.787 309.24 125.393 309.24Z" fill="#C9DAFD"/>
<path d="M233.925 277.357H161.822C161.428 277.357 161.107 277.038 161.107 276.643V271.464C161.107 271.07 161.428 270.75 161.822 270.75H232.564C233.246 271.404 233.936 272.055 234.639 272.706V276.643C234.639 277.038 234.319 277.357 233.925 277.357Z" fill="#BFCCFA"/>
<path d="M234.152 287.917H162.049C161.654 287.917 161.335 287.597 161.335 287.202V282.024C161.335 281.629 161.654 281.309 162.049 281.309H234.152C234.547 281.309 234.867 281.629 234.867 282.024V287.202C234.867 287.597 234.547 287.917 234.152 287.917Z" fill="#BFCCFA"/>
<path d="M204.191 298.689H162.049C161.654 298.689 161.335 298.369 161.335 297.975V292.796C161.335 292.402 161.654 292.082 162.049 292.082H204.191C204.586 292.082 204.906 292.402 204.906 292.796V297.975C204.906 298.369 204.586 298.689 204.191 298.689Z" fill="#BFCCFA"/>
<path d="M200.141 246.125H199.021C198.466 246.125 198.014 245.674 198.014 245.118V241.289C198.014 239.919 196.904 238.808 195.533 238.808H188.594C187.223 238.808 186.112 239.919 186.112 241.289V245.118C186.112 245.674 185.661 246.125 185.105 246.125H183.984C183.428 246.125 182.978 245.674 182.978 245.118V241.289C182.978 238.188 185.491 235.675 188.594 235.675H195.533C198.634 235.675 201.149 238.188 201.149 241.289V245.118C201.149 245.674 200.699 246.125 200.141 246.125Z" fill="#BFCCFA"/>
<path d="M201.531 265.761H182.596C181.436 265.761 180.496 264.821 180.496 263.661V249.13C180.496 247.97 181.436 247.028 182.596 247.028H201.531C202.691 247.028 203.631 247.97 203.631 249.13V263.661C203.631 264.821 202.691 265.761 201.531 265.761ZM192.063 250.756C191.99 250.756 191.915 250.759 191.84 250.764C190.079 250.873 188.651 252.314 188.559 254.076C188.487 255.435 189.19 256.637 190.266 257.28L189.355 261.072C189.237 261.561 189.608 262.033 190.112 262.033H194.015C194.519 262.033 194.89 261.561 194.772 261.072L193.861 257.28C194.886 256.668 195.573 255.546 195.573 254.266C195.573 252.327 194.002 250.756 192.063 250.756Z" fill="#BFCCFA"/>
<path d="M255.256 76.486C255.183 76.486 255.106 76.4686 255.038 76.4297C254.82 76.3078 254.742 76.0345 254.862 75.8162C255.153 75.2937 255.434 74.7686 255.708 74.2381C255.822 74.0171 256.092 73.9313 256.315 74.0452C256.536 74.159 256.623 74.431 256.509 74.6534C256.231 75.1906 255.945 75.7237 255.651 76.2542C255.568 76.4029 255.414 76.486 255.256 76.486Z" fill="#91B3FA"/>
<path d="M248.818 45.3973C248.842 45.0892 248.668 44.7998 248.384 44.6766L240.299 41.1641C239.675 37.0957 238.397 33.0969 236.449 29.3339L240.911 21.7382C241.068 21.4717 241.037 21.1354 240.836 20.901L233.964 12.8659C233.763 12.6315 233.435 12.5498 233.148 12.6636L224.953 15.8948C221.538 13.3884 217.786 11.5062 213.862 10.259L211.645 1.72829C211.567 1.42821 211.308 1.21255 211 1.18843L200.459 0.367233C200.151 0.343117 199.861 0.517281 199.738 0.799942L196.226 8.88456C192.157 9.51016 188.158 10.7881 184.397 12.7346L176.801 8.27234C176.535 8.11694 176.198 8.14641 175.963 8.34735L167.929 15.2196C167.693 15.4206 167.611 15.7488 167.725 16.0368L170.956 24.2313C168.45 27.6473 166.569 31.3983 165.322 35.322L156.79 37.5391C156.491 37.6168 156.274 37.8767 156.25 38.1848L155.429 48.7263C155.405 49.033 155.579 49.3224 155.863 49.4456L163.947 52.9581C164.572 57.0266 165.85 61.0253 167.796 64.7883L163.335 72.384C163.179 72.6506 163.208 72.9868 163.409 73.2213L170.283 81.2563C170.482 81.4907 170.81 81.5725 171.098 81.4586L179.293 78.2274C182.709 80.7339 186.461 82.616 190.384 83.8632L192.602 92.3939C192.678 92.694 192.938 92.9097 193.246 92.9338L203.788 93.755C204.096 93.7791 204.385 93.605 204.509 93.3223L208.02 85.2377C212.089 84.6134 216.088 83.3354 219.85 81.3876L227.446 85.8499C227.712 86.0053 228.048 85.9758 228.283 85.7749L236.318 78.9026C236.552 78.7017 236.634 78.3734 236.522 78.0868L233.29 69.891C235.795 66.4763 237.678 62.7226 238.925 58.8002L247.457 56.5832C247.756 56.5055 247.973 56.2456 247.997 55.9374L248.818 45.3973Z" fill="#91B3FA"/>
<path d="M202.101 57.1284C200.037 57.1284 198.027 56.4934 196.309 55.2771C191.778 52.0714 190.701 45.7778 193.907 41.2472C195.461 39.0529 197.776 37.594 200.425 37.1412C200.999 37.0421 201.573 36.9939 202.143 36.9939C204.207 36.9939 206.218 37.6289 207.937 38.8453C210.132 40.3992 211.59 42.7128 212.044 45.3625C212.497 48.0136 211.891 50.6808 210.339 52.8751C208.786 55.0694 206.471 56.5283 203.821 56.9824C203.248 57.0802 202.672 57.1284 202.101 57.1284ZM202.141 38.3469C201.647 38.3469 201.15 38.3898 200.653 38.4742C198.36 38.8667 196.356 40.1286 195.012 42.0282C192.236 45.9493 193.169 51.3975 197.09 54.1719C198.578 55.2262 200.318 55.7754 202.105 55.7754C202.598 55.7754 203.097 55.7325 203.594 55.6481C205.887 55.2556 207.89 53.9937 209.233 52.0941C210.578 50.1945 211.102 47.885 210.711 45.5916C210.317 43.2982 209.055 41.2941 207.156 39.9505C205.667 38.8975 203.928 38.3469 202.141 38.3469Z" fill="#DEE8FD"/>
<path d="M201.94 73.2534C201.251 73.2534 200.558 73.2266 199.864 73.1717C192.89 72.6291 186.544 69.402 181.998 64.0864C177.902 59.2999 175.707 53.3359 175.707 47.1053C175.707 46.4154 175.733 45.7228 175.788 45.0276C176.331 38.0535 179.558 31.709 184.875 27.161C189.66 23.0671 195.624 20.8715 201.856 20.8715C202.546 20.8715 203.239 20.8983 203.933 20.9519C210.908 21.4957 217.252 24.7229 221.799 30.0385C223.014 31.4572 224.076 33.0031 224.957 34.6334L223.767 35.2765C222.931 33.7305 221.924 32.2636 220.772 30.9173C216.459 25.8763 210.442 22.8166 203.828 22.3009C203.173 22.25 202.519 22.2245 201.869 22.2245C195.956 22.2245 190.296 24.3036 185.754 28.1885C180.713 32.5021 177.652 38.5197 177.136 45.1334C177.085 45.7911 177.06 46.4489 177.06 47.1026C177.06 53.0117 179.143 58.6689 183.025 63.2076C187.337 68.2486 193.355 71.3083 199.969 71.824C200.628 71.8749 201.285 71.9004 201.94 71.9004C207.852 71.9004 213.504 69.8186 218.043 65.9364C221.464 63.0093 224.024 59.2168 225.445 54.9716L226.729 55.4003C225.23 59.8786 222.53 63.8774 218.922 66.9639C214.136 71.0578 208.172 73.2534 201.94 73.2534Z" fill="#DEE8FD"/>
<path d="M303.256 74.3411C303.268 74.1831 303.178 74.0344 303.032 73.9701L298.88 72.1669C298.559 70.0758 297.903 68.0222 296.902 66.0891L299.194 62.1881C299.275 62.0515 299.259 61.8786 299.157 61.7581L295.626 57.6307C295.523 57.5101 295.354 57.4673 295.206 57.5262L290.997 59.186C289.242 57.8986 287.315 56.9314 285.3 56.2911L284.161 51.9092C284.121 51.7551 283.988 51.6439 283.829 51.6319L278.414 51.2099C278.256 51.1965 278.107 51.2863 278.044 51.4323L276.24 55.5851C274.15 55.9066 272.097 56.563 270.163 57.5624L266.261 55.2703C266.125 55.1899 265.952 55.206 265.831 55.3091L261.704 58.839C261.583 58.9422 261.542 59.111 261.601 59.2583L263.26 63.4688C261.973 65.2223 261.006 67.15 260.365 69.1662L255.982 70.3049C255.829 70.345 255.718 70.4777 255.705 70.6358L255.283 76.0505C255.271 76.2086 255.361 76.3573 255.507 76.4202L259.659 78.2247C259.98 80.3145 260.636 82.3695 261.637 84.3012L259.345 88.2036C259.264 88.3402 259.28 88.513 259.382 88.6336L262.913 92.761C263.017 92.8815 263.185 92.9231 263.333 92.8655L267.542 91.2057C269.297 92.493 271.224 93.4589 273.239 94.1006L274.378 98.4825C274.418 98.6365 274.551 98.7477 274.71 98.7598L280.125 99.1818C280.283 99.1938 280.432 99.1041 280.495 98.9594L282.299 94.8066C284.389 94.485 286.443 93.8286 288.376 92.8279L292.278 95.12C292.415 95.2004 292.587 95.1857 292.708 95.0825L296.834 91.5513C296.956 91.4481 296.997 91.2807 296.939 91.1333L295.279 86.9229C296.566 85.168 297.533 83.2416 298.174 81.2255L302.557 80.0868C302.71 80.0466 302.821 79.914 302.834 79.7559L303.256 74.3411Z" fill="#91B3FA"/>
<path d="M279.258 80.6963C278.13 80.6963 277.032 80.3493 276.093 79.6849C273.618 77.9326 273.029 74.4938 274.781 72.0195C275.629 70.8192 276.894 70.0235 278.342 69.7757C278.655 69.7221 278.97 69.6953 279.281 69.6953C280.409 69.6953 281.507 70.0423 282.446 70.7067C283.645 71.556 284.443 72.8193 284.69 74.2674C284.938 75.7156 284.607 77.1731 283.758 78.372C282.91 79.5723 281.645 80.3681 280.197 80.6159C279.884 80.6695 279.57 80.6963 279.258 80.6963ZM279.276 71.051C277.973 71.051 276.693 71.6592 275.885 72.8005C274.565 74.6666 275.009 77.2588 276.875 78.5797C277.582 79.0807 278.412 79.3433 279.261 79.3433C279.497 79.3433 279.732 79.3232 279.968 79.283C281.06 79.0954 282.014 78.4953 282.654 77.591C283.293 76.6868 283.542 75.587 283.356 74.4965C283.17 73.4047 282.568 72.4509 281.665 71.8119C280.939 71.2975 280.103 71.051 279.276 71.051Z" fill="#DEE8FD"/>
<path d="M279.177 88.9791C278.813 88.9791 278.449 88.9657 278.083 88.9363C274.413 88.6509 271.074 86.9523 268.682 84.1551C266.464 81.563 265.378 78.376 265.378 75.2051C265.378 71.3135 267.013 67.4447 270.196 64.7226C272.788 62.5055 275.973 61.4191 279.144 61.4191C283.036 61.4191 286.905 63.0548 289.627 66.2377C289.666 66.2819 289.705 66.3274 289.742 66.373C290.278 67.016 290.755 67.7059 291.163 68.4293L291.167 68.4374L291.186 68.4695C291.197 68.4883 291.206 68.507 291.217 68.5258L291.234 68.5566C291.253 68.5901 291.271 68.6222 291.288 68.6557L290.098 69.2987C289.679 68.5244 289.175 67.7917 288.599 67.1165C286.144 64.247 282.654 62.7721 279.144 62.7721C278.145 62.7721 277.144 62.8927 276.165 63.1338C274.342 63.5812 272.595 64.4507 271.075 65.7514C268.205 68.2056 266.731 71.6953 266.73 75.2038C266.73 78.0639 267.709 80.9374 269.709 83.275C272.164 86.1445 275.653 87.6194 279.163 87.6194C282.023 87.6194 284.895 86.6415 287.234 84.6414C288.945 83.1759 290.226 81.279 290.937 79.1544L292.222 79.5844C291.431 81.9408 290.011 84.0453 288.113 85.6689C285.595 87.823 282.456 88.9791 279.177 88.9791Z" fill="#DEE8FD"/>
<mask id="mask4_53_6008" style="mask-type:luminance" maskUnits="userSpaceOnUse" x="189" y="108" width="156" height="187">
<path d="M265.211 294.449C264.509 294.449 263.81 294.311 263.155 294.039C262.887 293.928 262.628 293.795 262.378 293.64C260.911 292.726 259.479 291.81 258.071 290.886C249.133 285.017 241.37 278.934 234.639 272.706C233.936 272.055 233.246 271.404 232.564 270.75C218.621 257.362 209.296 243.316 203.031 229.164C202.876 228.813 202.721 228.459 202.57 228.108C202.269 227.41 201.974 226.711 201.686 226.012C201.054 224.473 200.458 222.936 199.892 221.396C189.576 193.266 190.211 165.138 189.664 141.396C189.629 139.873 190.243 138.407 191.355 137.365C192.349 136.434 193.656 135.921 195.008 135.921C195.167 135.921 195.327 135.929 195.488 135.942C196.747 136.056 198.093 136.114 199.51 136.114C211.965 136.114 230.065 131.688 246.034 121.833C251.669 118.356 257.038 114.203 261.8 109.331C262.32 108.798 263.003 108.582 263.736 108.582C264.939 108.582 266.276 109.165 267.255 109.896C273.699 114.713 281.383 118.411 289.347 121.251C308.589 128.111 329.467 129.961 338.425 130.453C341.046 130.597 343.172 132.63 343.442 135.24C346.913 168.76 342.766 195.834 334.861 217.508C333.052 222.466 331.049 227.14 328.894 231.545C309.2 271.796 276.959 289.454 267.496 293.936C266.772 294.279 265.991 294.449 265.211 294.449ZM199.496 144.073C199.011 144.073 198.558 144.261 198.222 144.606C197.887 144.946 197.707 145.397 197.715 145.876L197.768 148.74C198.145 170.229 198.573 194.584 207.31 218.503C217.092 245.284 235.802 267.223 264.51 285.574C264.801 285.76 265.136 285.854 265.471 285.854C265.748 285.854 266.025 285.79 266.279 285.66C273.759 281.814 292.901 270.534 309.043 248.885C330.657 219.897 339.687 183.187 335.881 139.774C335.805 138.902 335.118 138.224 334.246 138.158C317.875 136.952 287.199 132.797 265.696 118.529C265.396 118.33 265.054 118.233 264.714 118.233C264.288 118.233 263.865 118.385 263.531 118.685C243.959 136.222 217.274 144.073 199.496 144.073ZM265.469 285.125C265.273 285.125 265.074 285.069 264.903 284.961C236.335 266.698 217.72 244.878 207.994 218.253C199.299 194.449 198.871 170.159 198.496 148.726L198.444 145.862C198.439 145.581 198.545 145.316 198.741 145.116C198.941 144.914 199.209 144.801 199.51 144.801C217.413 144.801 244.302 136.894 264.017 119.228C264.214 119.051 264.463 118.961 264.714 118.961C264.915 118.961 265.116 119.019 265.293 119.135C286.936 133.496 317.751 137.673 334.193 138.886C334.705 138.923 335.11 139.324 335.155 139.838C338.944 183.066 329.963 219.609 308.459 248.449C292.408 269.977 273.381 281.19 265.945 285.012C265.796 285.088 265.633 285.125 265.469 285.125ZM238.602 182.096C235.095 182.096 232.251 184.94 232.251 188.448V232.378C232.251 235.885 235.095 238.729 238.602 238.729H295.843C299.35 238.729 302.194 235.885 302.194 232.378V188.448C302.194 184.94 299.35 182.096 295.843 182.096H238.602ZM256.731 157.245H277.714C281.856 157.245 285.214 160.604 285.214 164.747V176.32C285.214 178.003 286.578 179.365 288.259 179.365H291.646C293.327 179.365 294.689 178.003 294.689 176.32V164.747C294.689 155.371 287.09 147.77 277.714 147.77H256.731C247.355 147.77 239.754 155.371 239.754 164.747V176.32C239.754 178.003 241.118 179.365 242.799 179.365H246.186C247.867 179.365 249.229 178.003 249.229 176.32V164.747C249.229 160.604 252.588 157.245 256.731 157.245ZM273.124 227.459H261.321C259.799 227.459 258.678 226.035 259.033 224.556L261.787 213.09C258.536 211.146 256.41 207.513 256.627 203.403C256.908 198.078 261.223 193.719 266.545 193.388C266.772 193.375 266.998 193.368 267.222 193.368C273.082 193.368 277.833 198.117 277.833 203.978C277.833 207.851 275.756 211.237 272.658 213.09L275.412 224.556C275.767 226.035 274.646 227.459 273.124 227.459Z" fill="white"/>
</mask>
<g mask="url(#mask4_53_6008)">
<path d="M265.211 294.449C264.509 294.449 263.81 294.311 263.155 294.039C262.887 293.928 262.628 293.795 262.378 293.64C260.911 292.726 259.479 291.81 258.071 290.886C249.133 285.017 241.37 278.934 234.639 272.706C233.936 272.055 233.246 271.404 232.564 270.75C218.621 257.362 209.296 243.316 203.031 229.164C202.876 228.813 202.721 228.459 202.57 228.108C202.269 227.41 201.974 226.711 201.686 226.012C201.054 224.473 200.458 222.936 199.892 221.396C189.576 193.266 190.211 165.138 189.664 141.396C189.629 139.873 190.243 138.407 191.355 137.365C192.349 136.434 193.656 135.921 195.008 135.921C195.167 135.921 195.327 135.929 195.488 135.942C196.747 136.056 198.093 136.114 199.51 136.114C211.965 136.114 230.065 131.688 246.034 121.833C251.669 118.356 257.038 114.203 261.8 109.331C262.32 108.798 263.003 108.582 263.736 108.582C264.939 108.582 266.276 109.165 267.255 109.896C273.699 114.713 281.383 118.411 289.347 121.251C308.589 128.111 329.467 129.961 338.425 130.453C341.046 130.597 343.172 132.63 343.442 135.24C346.913 168.76 342.766 195.834 334.861 217.508C333.052 222.466 331.049 227.14 328.894 231.545C309.2 271.796 276.959 289.454 267.496 293.936C266.772 294.279 265.991 294.449 265.211 294.449ZM199.496 144.073C199.011 144.073 198.558 144.261 198.222 144.606C197.887 144.946 197.707 145.397 197.715 145.876L197.768 148.74C198.145 170.229 198.573 194.584 207.31 218.503C217.092 245.284 235.802 267.223 264.51 285.574C264.801 285.76 265.136 285.854 265.471 285.854C265.748 285.854 266.025 285.79 266.279 285.66C273.759 281.814 292.901 270.534 309.043 248.885C330.657 219.897 339.687 183.187 335.881 139.774C335.805 138.902 335.118 138.224 334.246 138.158C317.875 136.952 287.199 132.797 265.696 118.529C265.396 118.33 265.054 118.233 264.714 118.233C264.288 118.233 263.865 118.385 263.531 118.685C243.959 136.222 217.274 144.073 199.496 144.073ZM265.469 285.125C265.273 285.125 265.074 285.069 264.903 284.961C236.335 266.698 217.72 244.878 207.994 218.253C199.299 194.449 198.871 170.159 198.496 148.726L198.444 145.862C198.439 145.581 198.545 145.316 198.741 145.116C198.941 144.914 199.209 144.801 199.51 144.801C217.413 144.801 244.302 136.894 264.017 119.228C264.214 119.051 264.463 118.961 264.714 118.961C264.915 118.961 265.116 119.019 265.293 119.135C286.936 133.496 317.751 137.673 334.193 138.886C334.705 138.923 335.11 139.324 335.155 139.838C338.944 183.066 329.963 219.609 308.459 248.449C292.408 269.977 273.381 281.19 265.945 285.012C265.796 285.088 265.633 285.125 265.469 285.125ZM238.602 182.096C235.095 182.096 232.251 184.94 232.251 188.448V232.378C232.251 235.885 235.095 238.729 238.602 238.729H295.843C299.35 238.729 302.194 235.885 302.194 232.378V188.448C302.194 184.94 299.35 182.096 295.843 182.096H238.602ZM256.731 157.245H277.714C281.856 157.245 285.214 160.604 285.214 164.747V176.32C285.214 178.003 286.578 179.365 288.259 179.365H291.646C293.327 179.365 294.689 178.003 294.689 176.32V164.747C294.689 155.371 287.09 147.77 277.714 147.77H256.731C247.355 147.77 239.754 155.371 239.754 164.747V176.32C239.754 178.003 241.118 179.365 242.799 179.365H246.186C247.867 179.365 249.229 178.003 249.229 176.32V164.747C249.229 160.604 252.588 157.245 256.731 157.245ZM273.124 227.459H261.321C259.799 227.459 258.678 226.035 259.033 224.556L261.787 213.09C258.536 211.146 256.41 207.513 256.627 203.403C256.908 198.078 261.223 193.719 266.545 193.388C266.772 193.375 266.998 193.368 267.222 193.368C273.082 193.368 277.833 198.117 277.833 203.978C277.833 207.851 275.756 211.237 272.658 213.09L275.412 224.556C275.767 226.035 274.646 227.459 273.124 227.459Z" fill="url(#paint4_linear_53_6008)"/>
</g>
<mask id="mask5_53_6008" style="mask-type:luminance" maskUnits="userSpaceOnUse" x="197" y="118" width="140" height="168">
<path d="M265.471 285.854C265.136 285.854 264.801 285.76 264.51 285.574C235.802 267.223 217.092 245.284 207.31 218.503C198.573 194.584 198.145 170.229 197.768 148.74L197.715 145.876C197.707 145.397 197.887 144.946 198.222 144.606C198.558 144.261 199.011 144.072 199.496 144.072C217.274 144.072 243.959 136.222 263.531 118.685C263.865 118.385 264.288 118.232 264.714 118.232C265.054 118.232 265.396 118.33 265.696 118.529C287.199 132.797 317.875 136.952 334.246 138.158C335.118 138.224 335.805 138.902 335.881 139.774C339.687 183.187 330.657 219.896 309.043 248.885C292.901 270.534 273.759 281.814 266.279 285.66C266.025 285.79 265.748 285.854 265.471 285.854ZM199.51 144.801C199.209 144.801 198.941 144.914 198.742 145.116C198.545 145.316 198.439 145.581 198.444 145.862L198.496 148.726C198.871 170.159 199.299 194.449 207.994 218.253C217.72 244.878 236.335 266.698 264.903 284.961C265.074 285.069 265.273 285.125 265.469 285.125C265.633 285.125 265.796 285.088 265.945 285.011C273.381 281.19 292.408 269.977 308.459 248.449C329.963 219.608 338.944 183.066 335.155 139.838C335.11 139.324 334.705 138.923 334.193 138.885C317.751 137.673 286.936 133.496 265.293 119.135C265.116 119.019 264.915 118.961 264.714 118.961C264.463 118.961 264.214 119.051 264.017 119.228C244.302 136.893 217.413 144.801 199.51 144.801Z" fill="white"/>
</mask>
<g mask="url(#mask5_53_6008)">
<path d="M265.471 285.854C265.136 285.854 264.801 285.76 264.51 285.574C235.802 267.223 217.092 245.284 207.31 218.503C198.573 194.584 198.145 170.229 197.768 148.74L197.715 145.876C197.707 145.397 197.887 144.946 198.222 144.606C198.558 144.261 199.011 144.072 199.496 144.072C217.274 144.072 243.959 136.222 263.531 118.685C263.865 118.385 264.288 118.232 264.714 118.232C265.054 118.232 265.396 118.33 265.696 118.529C287.199 132.797 317.875 136.952 334.246 138.158C335.118 138.224 335.805 138.902 335.881 139.774C339.687 183.187 330.657 219.896 309.043 248.885C292.901 270.534 273.759 281.814 266.279 285.66C266.025 285.79 265.748 285.854 265.471 285.854ZM199.51 144.801C199.209 144.801 198.941 144.914 198.742 145.116C198.545 145.316 198.439 145.581 198.444 145.862L198.496 148.726C198.871 170.159 199.299 194.449 207.994 218.253C217.72 244.878 236.335 266.698 264.903 284.961C265.074 285.069 265.273 285.125 265.469 285.125C265.633 285.125 265.796 285.088 265.945 285.011C273.381 281.19 292.408 269.977 308.459 248.449C329.963 219.608 338.944 183.066 335.155 139.838C335.11 139.324 334.705 138.923 334.193 138.885C317.751 137.673 286.936 133.496 265.293 119.135C265.116 119.019 264.915 118.961 264.714 118.961C264.463 118.961 264.214 119.051 264.017 119.228C244.302 136.893 217.413 144.801 199.51 144.801Z" fill="url(#paint5_linear_53_6008)"/>
</g>
<mask id="mask6_53_6008" style="mask-type:luminance" maskUnits="userSpaceOnUse" x="239" y="147" width="56" height="33">
<path d="M291.646 179.365H288.259C286.578 179.365 285.214 178.002 285.214 176.32V164.747C285.214 160.603 281.856 157.245 277.714 157.245H256.731C252.588 157.245 249.229 160.603 249.229 164.747V176.32C249.229 178.002 247.867 179.365 246.186 179.365H242.799C241.118 179.365 239.754 178.002 239.754 176.32V164.747C239.754 155.371 247.355 147.77 256.731 147.77H277.714C287.09 147.77 294.689 155.371 294.689 164.747V176.32C294.689 178.002 293.327 179.365 291.646 179.365Z" fill="white"/>
</mask>
<g mask="url(#mask6_53_6008)">
<path d="M291.646 179.365H288.259C286.578 179.365 285.214 178.002 285.214 176.32V164.747C285.214 160.603 281.856 157.245 277.714 157.245H256.731C252.588 157.245 249.229 160.603 249.229 164.747V176.32C249.229 178.002 247.867 179.365 246.186 179.365H242.799C241.118 179.365 239.754 178.002 239.754 176.32V164.747C239.754 155.371 247.355 147.77 256.731 147.77H277.714C287.09 147.77 294.689 155.371 294.689 164.747V176.32C294.689 178.002 293.327 179.365 291.646 179.365Z" fill="url(#paint6_linear_53_6008)"/>
</g>
<mask id="mask7_53_6008" style="mask-type:luminance" maskUnits="userSpaceOnUse" x="232" y="182" width="71" height="57">
<path d="M295.843 238.729H238.602C235.095 238.729 232.251 235.885 232.251 232.378V188.448C232.251 184.94 235.095 182.096 238.602 182.096H295.843C299.35 182.096 302.194 184.94 302.194 188.448V232.378C302.194 235.885 299.35 238.729 295.843 238.729ZM267.222 193.368C266.998 193.368 266.772 193.375 266.545 193.388C261.223 193.719 256.908 198.078 256.627 203.403C256.41 207.513 258.536 211.146 261.787 213.09L259.033 224.556C258.678 226.035 259.799 227.459 261.321 227.459H273.124C274.646 227.459 275.767 226.035 275.412 224.556L272.658 213.09C275.756 211.237 277.833 207.851 277.833 203.978C277.833 198.117 273.083 193.368 267.222 193.368Z" fill="white"/>
</mask>
<g mask="url(#mask7_53_6008)">
<path d="M295.843 238.729H238.602C235.095 238.729 232.251 235.885 232.251 232.378V188.448C232.251 184.94 235.095 182.096 238.602 182.096H295.843C299.35 182.096 302.194 184.94 302.194 188.448V232.378C302.194 235.885 299.35 238.729 295.843 238.729ZM267.222 193.368C266.998 193.368 266.772 193.375 266.545 193.388C261.223 193.719 256.908 198.078 256.627 203.403C256.41 207.513 258.536 211.146 261.787 213.09L259.033 224.556C258.678 226.035 259.799 227.459 261.321 227.459H273.124C274.646 227.459 275.767 226.035 275.412 224.556L272.658 213.09C275.756 211.237 277.833 207.851 277.833 203.978C277.833 198.117 273.083 193.368 267.222 193.368Z" fill="url(#paint7_linear_53_6008)"/>
</g>
<mask id="mask8_53_6008" style="mask-type:luminance" maskUnits="userSpaceOnUse" x="27" y="167" width="27" height="23">
<path d="M47.8083 167.736C47.8083 167.736 52.4444 167.981 53.0128 177.519C53.0128 177.519 42.2626 187.156 27.7413 189.449C26.651 189.622 29.2654 182.008 29.6583 180.976C31.5283 176.069 37.4174 172.909 47.8083 167.736Z" fill="white"/>
</mask>
<g mask="url(#mask8_53_6008)">
<path d="M47.8083 167.736C47.8083 167.736 52.4444 167.981 53.0128 177.519C53.0128 177.519 42.2626 187.156 27.7413 189.449C26.651 189.622 29.2654 182.008 29.6583 180.976C31.5283 176.069 37.4174 172.909 47.8083 167.736Z" fill="url(#paint8_linear_53_6008)"/>
</g>
<path d="M100.019 156.522H90.236C90.236 156.522 60.2093 123.359 40.5153 120.013C40.5153 120.013 26.8064 137.512 41.2455 170.21C42.407 172.84 45.6557 174.008 48.0789 172.461C48.8037 171.997 49.3241 171.377 49.6403 170.6L48.4792 142.682C48.4792 142.682 74.0923 165.083 78.5452 169.406C82.9967 173.729 105.627 171.094 100.019 156.522Z" fill="#7D97F4"/>
<mask id="mask9_53_6008" style="mask-type:luminance" maskUnits="userSpaceOnUse" x="5" y="217" width="24" height="14">
<path d="M5.43706 226.147C9.53671 222.554 16.069 218.523 25.4989 217.367L28.688 219.318C28.688 219.318 26.6544 222.319 22.9394 225.487C19.5249 227.469 14.2526 230.155 9.88167 230.738C5.63198 231.303 5.0053 228.735 5.43706 226.147Z" fill="white"/>
</mask>
<g mask="url(#mask9_53_6008)">
<path d="M5.43706 226.147C9.53671 222.554 16.069 218.523 25.4989 217.367L28.688 219.318C28.688 219.318 26.6544 222.319 22.9394 225.487C19.5249 227.469 14.2526 230.155 9.88167 230.738C5.63198 231.303 5.0053 228.735 5.43706 226.147Z" fill="url(#paint9_linear_53_6008)"/>
</g>
<path d="M29.6583 180.976C32.1839 181.794 33.2947 185.373 39.7036 183.006C45.9039 180.717 50.5133 177.764 52.8847 176.061C52.9376 176.524 52.9821 177.006 53.0128 177.519C53.0128 177.519 41.678 188.3 27.1565 190.595C26.0663 190.766 25.2023 189.679 25.5954 188.647C26.3006 186.796 27.5719 183.989 29.6583 180.976Z" fill="#91B3FA"/>
<path d="M2.34866 229.215C3.15686 228.296 4.18836 227.242 5.43702 226.147C5.00526 228.735 5.63194 231.303 9.88163 230.738C14.2525 230.155 19.5249 227.469 22.9393 225.487C18.6599 229.136 12.1487 233.01 3.93048 232.782C2.10498 232.731 1.14233 230.585 2.34866 229.215Z" fill="#91B3FA"/>
<path d="M99.6617 163.6L53.848 164.096C53.848 164.096 27.6848 185.742 22.9393 218.749C22.9393 218.749 22.1516 221.177 26.8809 221.593C26.8809 221.593 42.6988 211.261 53.0128 192.996C65.6593 170.6 90.7143 180.68 90.7143 180.68C102.751 183.337 112.33 182.348 119.342 171.56L99.6617 163.6Z" fill="#7D97F4"/>
<mask id="mask10_53_6008" style="mask-type:luminance" maskUnits="userSpaceOnUse" x="58" y="126" width="49" height="39">
<path d="M98.5806 126.694C98.5806 126.694 93.6481 151.411 69.4828 161.189L60.8871 160.176L58.8588 163.41L79.0221 164.053C79.0221 164.053 96.2564 157.226 105.389 138.626C105.69 138.011 110.719 127.627 98.5806 126.694Z" fill="white"/>
</mask>
<g mask="url(#mask10_53_6008)">
<path d="M98.5806 126.694C98.5806 126.694 93.6481 151.411 69.4828 161.189L60.8871 160.176L58.8588 163.41L79.0221 164.053C79.0221 164.053 96.2564 157.226 105.389 138.626C105.69 138.011 110.719 127.627 98.5806 126.694Z" fill="url(#paint10_linear_53_6008)"/>
</g>
<mask id="mask11_53_6008" style="mask-type:luminance" maskUnits="userSpaceOnUse" x="95" y="102" width="54" height="70">
<path d="M95.9375 163.196C95.9375 163.196 101.545 147.951 102.751 133.137C102.751 133.137 98.6476 129.611 96.0835 128.089C95.253 127.596 94.9395 126.554 95.3588 125.685C97.245 121.778 108.647 106.442 109.501 106.229C114.143 105.071 133.183 96.0176 146.593 114.36C152.348 122.231 145.451 146.464 119.342 171.56C110.941 172.928 103.086 170.507 95.9375 163.196Z" fill="white"/>
</mask>
<g mask="url(#mask11_53_6008)">
<path d="M95.9375 163.196C95.9375 163.196 101.545 147.951 102.751 133.137C102.751 133.137 98.6476 129.611 96.0835 128.089C95.253 127.596 94.9395 126.554 95.3588 125.685C97.245 121.778 108.647 106.442 109.501 106.229C114.143 105.071 133.183 96.0176 146.593 114.36C152.348 122.231 145.451 146.464 119.342 171.56C110.941 172.928 103.086 170.507 95.9375 163.196Z" fill="url(#paint11_linear_53_6008)"/>
</g>
<mask id="mask12_53_6008" style="mask-type:luminance" maskUnits="userSpaceOnUse" x="63" y="136" width="63" height="28">
<path d="M117.548 136.477C117.548 136.477 101.966 154.927 82.0443 157.624C82.0443 157.624 76.8961 152.931 73.0675 154.606C69.2386 156.282 63.989 163.679 63.989 163.679H89.569C89.569 163.679 113.755 162.827 125.841 148.161C124.868 143.029 121.956 139.963 117.548 136.477Z" fill="white"/>
</mask>
<g mask="url(#mask12_53_6008)">
<path d="M117.548 136.477C117.548 136.477 101.966 154.927 82.0443 157.624C82.0443 157.624 76.8961 152.931 73.0675 154.606C69.2386 156.282 63.989 163.679 63.989 163.679H89.569C89.569 163.679 113.755 162.827 125.841 148.161C124.868 143.029 121.956 139.963 117.548 136.477Z" fill="url(#paint12_linear_53_6008)"/>
</g>
<mask id="mask13_53_6008" style="mask-type:luminance" maskUnits="userSpaceOnUse" x="115" y="93" width="16" height="16">
<path d="M126.638 93.2888L130.047 104.66C130.204 105.181 130.011 105.745 129.562 106.051C127.921 107.177 123.63 109.413 117.745 107.24C117.073 106.99 116.611 106.362 116.553 105.647L115.744 95.7403L126.638 93.2888Z" fill="white"/>
</mask>
<g mask="url(#mask13_53_6008)">
<path d="M126.638 93.2888L130.047 104.66C130.204 105.181 130.011 105.745 129.562 106.051C127.921 107.177 123.63 109.413 117.745 107.24C117.073 106.99 116.611 106.362 116.553 105.647L115.744 95.7403L126.638 93.2888Z" fill="url(#paint13_linear_53_6008)"/>
</g>
<mask id="mask14_53_6008" style="mask-type:luminance" maskUnits="userSpaceOnUse" x="106" y="76" width="24" height="26">
<path d="M106.675 84.0788C106.675 84.0788 108.35 95.8662 112.878 99.4912C117.406 103.116 126.229 100.387 129.208 91.5003L123.271 76.3063L106.675 84.0788Z" fill="white"/>
</mask>
<g mask="url(#mask14_53_6008)">
<path d="M106.675 84.0788C106.675 84.0788 108.35 95.8662 112.878 99.4912C117.406 103.116 126.229 100.387 129.208 91.5003L123.271 76.3063L106.675 84.0788Z" fill="url(#paint14_linear_53_6008)"/>
</g>
<mask id="mask15_53_6008" style="mask-type:luminance" maskUnits="userSpaceOnUse" x="99" y="66" width="37" height="27">
<path d="M123.94 86.1392C123.595 86.2503 123.235 86.0293 123.181 85.6716C123.018 84.5839 122.609 82.4298 121.784 80.9629C121.784 80.9629 122.216 79.4169 117.875 81.7532C113.535 84.0896 107.016 87.5203 103.177 85.4774C99.4353 83.4854 95.6441 73.4583 105.535 75.315C105.911 75.386 106.257 75.0859 106.228 74.7041C106.107 73.0564 106.27 69.2653 110.111 68.0476C113.704 66.9089 115.67 68.5312 116.481 69.5104C116.719 69.7985 117.161 69.7918 117.389 69.4957C118.466 68.0904 121.388 65.099 125.692 66.9959C129.235 68.5579 129.787 70.7416 129.728 72.1013C129.709 72.542 130.157 72.8407 130.557 72.6559C131.642 72.1562 133.388 71.8963 135.061 73.9915C137.373 76.8891 134.069 79.4009 133.077 80.06C132.915 80.1685 132.815 80.3466 132.813 80.5422C132.804 82.048 132.569 88.6201 129.275 92.3269C128.99 92.6484 128.464 92.5533 128.297 92.1581L125.762 86.1151C125.644 85.8351 125.33 85.6904 125.041 85.7842L123.94 86.1392Z" fill="white"/>
</mask>
<g mask="url(#mask15_53_6008)">
<path d="M123.94 86.1392C123.595 86.2503 123.235 86.0293 123.181 85.6716C123.018 84.5839 122.609 82.4298 121.784 80.9629C121.784 80.9629 122.216 79.4169 117.875 81.7532C113.535 84.0896 107.016 87.5203 103.177 85.4774C99.4353 83.4854 95.6441 73.4583 105.535 75.315C105.911 75.386 106.257 75.0859 106.228 74.7041C106.107 73.0564 106.27 69.2653 110.111 68.0476C113.704 66.9089 115.67 68.5312 116.481 69.5104C116.719 69.7985 117.161 69.7918 117.389 69.4957C118.466 68.0904 121.388 65.099 125.692 66.9959C129.235 68.5579 129.787 70.7416 129.728 72.1013C129.709 72.542 130.157 72.8407 130.557 72.6559C131.642 72.1562 133.388 71.8963 135.061 73.9915C137.373 76.8891 134.069 79.4009 133.077 80.06C132.915 80.1685 132.815 80.3466 132.813 80.5422C132.804 82.048 132.569 88.6201 129.275 92.3269C128.99 92.6484 128.464 92.5533 128.297 92.1581L125.762 86.1151C125.644 85.8351 125.33 85.6904 125.041 85.7842L123.94 86.1392Z" fill="url(#paint15_linear_53_6008)"/>
</g>
<mask id="mask16_53_6008" style="mask-type:luminance" maskUnits="userSpaceOnUse" x="123" y="82" width="6" height="9">
<path d="M123.886 87.3663C123.886 87.3663 125.435 81.058 127.787 83.1063C130.141 85.1546 127.175 89.6611 124.479 90.5211L123.886 87.3663Z" fill="white"/>
</mask>
<g mask="url(#mask16_53_6008)">
<path d="M123.886 87.3663C123.886 87.3663 125.435 81.058 127.787 83.1063C130.141 85.1546 127.175 89.6611 124.479 90.5211L123.886 87.3663Z" fill="url(#paint16_linear_53_6008)"/>
</g>
<mask id="mask17_53_6008" style="mask-type:luminance" maskUnits="userSpaceOnUse" x="32" y="122" width="34" height="45">
<path d="M65.2768 165.111L53.7917 126.809C53.3232 125.247 51.9349 124.138 50.3076 124.026L34.801 122.965C33.2248 122.858 32.0525 124.397 32.5758 125.888L45.4151 162.467C45.8288 163.644 46.8867 164.478 48.1292 164.604L63.3992 166.298L65.2768 165.111Z" fill="white"/>
</mask>
<g mask="url(#mask17_53_6008)">
<path d="M65.2768 165.111L53.7917 126.809C53.3232 125.247 51.9349 124.138 50.3076 124.026L34.801 122.965C33.2248 122.858 32.0525 124.397 32.5758 125.888L45.4151 162.467C45.8288 163.644 46.8867 164.478 48.1292 164.604L63.3992 166.298L65.2768 165.111Z" fill="url(#paint17_linear_53_6008)"/>
</g>
<path d="M44.0951 139.791C44.9526 141.522 46.4334 142.536 47.4026 142.055C48.3717 141.575 48.4622 139.783 47.6047 138.052C46.7472 136.322 45.2666 135.307 44.2973 135.787C43.3283 136.268 43.2376 138.06 44.0951 139.791Z" fill="#91B3FA"/>
<mask id="mask18_53_6008" style="mask-type:luminance" maskUnits="userSpaceOnUse" x="61" y="161" width="37" height="6">
<path d="M63.3992 166.298C63.424 166.298 63.4489 166.298 63.4741 166.297L96.0112 164.652C96.815 164.612 97.4339 163.927 97.3937 163.122C97.3522 162.318 96.665 161.686 95.8639 161.739L63.3267 163.385C62.5224 163.425 61.9034 164.109 61.944 164.914C61.9835 165.693 62.6276 166.298 63.3992 166.298Z" fill="white"/>
</mask>
<g mask="url(#mask18_53_6008)">
<path d="M63.3992 166.298C63.424 166.298 63.4489 166.298 63.4741 166.297L96.0112 164.652C96.815 164.612 97.4339 163.927 97.3937 163.122C97.3522 162.318 96.665 161.686 95.8639 161.739L63.3267 163.385C62.5224 163.425 61.9034 164.109 61.944 164.914C61.9835 165.693 62.6276 166.298 63.3992 166.298Z" fill="url(#paint18_linear_53_6008)"/>
</g>
<mask id="mask19_53_6008" style="mask-type:luminance" maskUnits="userSpaceOnUse" x="102" y="116" width="4" height="18">
<path d="M102.751 133.362C102.626 133.362 102.526 133.262 102.526 133.137C102.503 126.269 105.146 117.18 105.173 117.089C105.208 116.969 105.332 116.901 105.452 116.936C105.572 116.971 105.64 117.095 105.606 117.214C105.579 117.306 102.954 126.335 102.976 133.136C102.977 133.26 102.875 133.362 102.751 133.362Z" fill="white"/>
</mask>
<g mask="url(#mask19_53_6008)">
<path d="M102.751 133.362C102.626 133.362 102.526 133.262 102.526 133.137C102.503 126.269 105.146 117.18 105.173 117.089C105.208 116.969 105.332 116.901 105.452 116.936C105.572 116.971 105.64 117.095 105.606 117.214C105.579 117.306 102.954 126.335 102.976 133.136C102.977 133.26 102.875 133.362 102.751 133.362Z" fill="url(#paint19_linear_53_6008)"/>
</g>
<mask id="mask20_53_6008" style="mask-type:luminance" maskUnits="userSpaceOnUse" x="117" y="120" width="11" height="17">
<path d="M117.548 136.703C117.499 136.703 117.449 136.687 117.408 136.655C117.311 136.577 117.294 136.435 117.372 136.338C117.443 136.248 124.514 127.258 126.935 121.123C126.981 121.007 127.111 120.948 127.227 120.996C127.344 121.042 127.4 121.173 127.354 121.29C124.91 127.484 117.796 136.526 117.725 136.618C117.681 136.674 117.614 136.703 117.548 136.703Z" fill="white"/>
</mask>
<g mask="url(#mask20_53_6008)">
<path d="M117.548 136.703C117.499 136.703 117.449 136.687 117.408 136.655C117.311 136.577 117.294 136.435 117.372 136.338C117.443 136.248 124.514 127.258 126.935 121.123C126.981 121.007 127.111 120.948 127.227 120.996C127.344 121.042 127.4 121.173 127.354 121.29C124.91 127.484 117.796 136.526 117.725 136.618C117.681 136.674 117.614 136.703 117.548 136.703Z" fill="url(#paint20_linear_53_6008)"/>
</g>
<mask id="mask21_53_6008" style="mask-type:luminance" maskUnits="userSpaceOnUse" x="126" y="133" width="19" height="18">
<path d="M127.573 150.527L126.287 148.708C126.214 148.606 126.238 148.465 126.34 148.393C126.442 148.321 126.583 148.345 126.655 148.446L127.731 149.968C137.766 145.569 143.978 133.563 144.041 133.441C144.097 133.331 144.232 133.286 144.343 133.344C144.455 133.4 144.499 133.536 144.441 133.646C144.378 133.771 138.026 146.051 127.74 150.455L127.573 150.527Z" fill="white"/>
</mask>
<g mask="url(#mask21_53_6008)">
<path d="M127.573 150.527L126.287 148.708C126.214 148.606 126.238 148.465 126.34 148.393C126.442 148.321 126.583 148.345 126.655 148.446L127.731 149.968C137.766 145.569 143.978 133.563 144.041 133.441C144.097 133.331 144.232 133.286 144.343 133.344C144.455 133.4 144.499 133.536 144.441 133.646C144.378 133.771 138.026 146.051 127.74 150.455L127.573 150.527Z" fill="url(#paint21_linear_53_6008)"/>
</g>
<defs>
<linearGradient id="paint0_linear_53_6008" x1="30.1237" y1="12.7091" x2="318.579" y2="460.313" gradientUnits="userSpaceOnUse">
<stop stop-color="#4F52FF"/>
<stop offset="1" stop-color="#893976"/>
</linearGradient>
<linearGradient id="paint1_linear_53_6008" x1="30.1237" y1="12.7091" x2="318.579" y2="460.313" gradientUnits="userSpaceOnUse">
<stop stop-color="#5D67FE"/>
<stop offset="1" stop-color="#A36EC3"/>
</linearGradient>
<linearGradient id="paint2_linear_53_6008" x1="175.546" y1="340.31" x2="127.518" y2="196.227" gradientUnits="userSpaceOnUse">
<stop stop-color="#09005D"/>
<stop offset="1" stop-color="#1A0F91"/>
</linearGradient>
<linearGradient id="paint3_linear_53_6008" x1="63.8001" y1="331.699" x2="277.649" y2="383.716" gradientUnits="userSpaceOnUse">
<stop stop-color="#311944"/>
<stop offset="1" stop-color="#1A0F91"/>
</linearGradient>
<linearGradient id="paint4_linear_53_6008" x1="429.474" y1="24.4175" x2="367.239" y2="85.299" gradientUnits="userSpaceOnUse">
<stop stop-color="#FF8491"/>
<stop offset="1" stop-color="#FE7062"/>
</linearGradient>
<linearGradient id="paint5_linear_53_6008" x1="429.474" y1="24.4174" x2="367.239" y2="85.2989" gradientUnits="userSpaceOnUse">
<stop stop-color="#FFD5D3"/>
<stop offset="1" stop-color="#FFC7C2"/>
</linearGradient>
<linearGradient id="paint6_linear_53_6008" x1="429.474" y1="24.4174" x2="367.239" y2="85.299" gradientUnits="userSpaceOnUse">
<stop stop-color="#FFD5D3"/>
<stop offset="1" stop-color="#FFC7C2"/>
</linearGradient>
<linearGradient id="paint7_linear_53_6008" x1="429.474" y1="24.4175" x2="367.24" y2="85.2991" gradientUnits="userSpaceOnUse">
<stop stop-color="#FFD5D3"/>
<stop offset="1" stop-color="#FFC7C2"/>
</linearGradient>
<linearGradient id="paint8_linear_53_6008" x1="43.1238" y1="176.802" x2="26.3172" y2="194.356" gradientUnits="userSpaceOnUse">
<stop stop-color="#09005D"/>
<stop offset="1" stop-color="#1A0F91"/>
</linearGradient>
<linearGradient id="paint9_linear_53_6008" x1="20.8288" y1="220.861" x2="-10.9617" y2="244.193" gradientUnits="userSpaceOnUse">
<stop stop-color="#09005D"/>
<stop offset="1" stop-color="#1A0F91"/>
</linearGradient>
<linearGradient id="paint10_linear_53_6008" x1="72.19" y1="134.63" x2="93.7726" y2="160.295" gradientUnits="userSpaceOnUse">
<stop stop-color="#FEBBBA"/>
<stop offset="1" stop-color="#FF928E"/>
</linearGradient>
<linearGradient id="paint11_linear_53_6008" x1="179.204" y1="71.4583" x2="114.261" y2="139.108" gradientUnits="userSpaceOnUse">
<stop stop-color="#FF8491"/>
<stop offset="1" stop-color="#FE7062"/>
</linearGradient>
<linearGradient id="paint12_linear_53_6008" x1="97.3562" y1="157.982" x2="54.2162" y2="98.9639" gradientUnits="userSpaceOnUse">
<stop stop-color="#FEBBBA"/>
<stop offset="1" stop-color="#FF928E"/>
</linearGradient>
<linearGradient id="paint13_linear_53_6008" x1="123.745" y1="109.075" x2="122.156" y2="94.7736" gradientUnits="userSpaceOnUse">
<stop stop-color="#FEBBBA"/>
<stop offset="1" stop-color="#FF928E"/>
</linearGradient>
<linearGradient id="paint14_linear_53_6008" x1="115.271" y1="96.5989" x2="122.275" y2="73.4982" gradientUnits="userSpaceOnUse">
<stop stop-color="#FEBBBA"/>
<stop offset="1" stop-color="#FF928E"/>
</linearGradient>
<linearGradient id="paint15_linear_53_6008" x1="121.591" y1="54.1825" x2="115.079" y2="91.3239" gradientUnits="userSpaceOnUse">
<stop stop-color="#09005D"/>
<stop offset="1" stop-color="#1A0F91"/>
</linearGradient>
<linearGradient id="paint16_linear_53_6008" x1="122.525" y1="98.7986" x2="129.529" y2="75.6979" gradientUnits="userSpaceOnUse">
<stop stop-color="#FEBBBA"/>
<stop offset="1" stop-color="#FF928E"/>
</linearGradient>
<linearGradient id="paint17_linear_53_6008" x1="65.2768" y1="144.63" x2="32.4495" y2="144.63" gradientUnits="userSpaceOnUse">
<stop stop-color="#09005D"/>
<stop offset="1" stop-color="#1A0F91"/>
</linearGradient>
<linearGradient id="paint18_linear_53_6008" x1="61.2925" y1="158.98" x2="87.5415" y2="166.174" gradientUnits="userSpaceOnUse">
<stop stop-color="#09005D"/>
<stop offset="1" stop-color="#1A0F91"/>
</linearGradient>
<linearGradient id="paint19_linear_53_6008" x1="109.883" y1="35.0942" x2="99.736" y2="191.357" gradientUnits="userSpaceOnUse">
<stop stop-color="#E1473D"/>
<stop offset="1" stop-color="#E9605A"/>
</linearGradient>
<linearGradient id="paint20_linear_53_6008" x1="128.356" y1="36.2945" x2="118.209" y2="192.557" gradientUnits="userSpaceOnUse">
<stop stop-color="#E1473D"/>
<stop offset="1" stop-color="#E9605A"/>
</linearGradient>
<linearGradient id="paint21_linear_53_6008" x1="142.101" y1="37.1868" x2="131.954" y2="193.45" gradientUnits="userSpaceOnUse">
<stop stop-color="#E1473D"/>
<stop offset="1" stop-color="#E9605A"/>
</linearGradient>
</defs>
</svg>
