<svg width="25" height="24" viewBox="0 0 25 24" fill="none" xmlns="http://www.w3.org/2000/svg">
<path d="M12.2656 24C18.893 24 24.2656 18.6274 24.2656 12C24.2656 5.37258 18.893 0 12.2656 0C5.63821 0 0.265625 5.37258 0.265625 12C0.265625 18.6274 5.63821 24 12.2656 24Z" fill="url(#paint0_linear_34_2141)"/>
<path d="M5.25446 11.8652L13.3443 8.56181C14.1533 8.22474 16.85 7.07867 16.85 7.07867C16.85 7.07867 18.1309 6.60676 17.996 7.75283C17.9286 8.22474 17.659 9.91013 17.3893 11.7978L16.5129 17.2584C16.5129 17.2584 16.4455 18.0674 15.8387 18.2023C15.232 18.3371 14.2882 17.7304 14.0859 17.5955C13.9511 17.4607 11.4567 15.9101 10.5803 15.1686C10.3106 14.9663 10.041 14.5618 10.6477 14.0899C11.9286 12.9438 13.4118 11.5281 14.2882 10.6517C14.6927 10.2472 15.0972 9.23597 13.4118 10.4495L8.49041 13.7528C8.49041 13.7528 7.95108 14.0899 6.87243 13.8202C5.86119 13.4832 4.64771 13.0787 4.64771 13.0787C4.64771 13.0787 3.83873 12.4045 5.25446 11.8652Z" fill="white"/>
<defs>
<linearGradient id="paint0_linear_34_2141" x1="15.7494" y1="3.78407" x2="-5.0572" y2="52.3294" gradientUnits="userSpaceOnUse">
<stop stop-color="#3CA8E0"/>
<stop offset="1" stop-color="#27A0DB"/>
</linearGradient>
</defs>
</svg>
