<svg xmlns="http://www.w3.org/2000/svg" width="373" height="359" fill="none" viewBox="0 0 373 359"><mask id="a" width="373" height="225" x="0" y="91" maskUnits="userSpaceOnUse" style="mask-type:luminance"><path fill="#fff" d="M324.027 315.33h-14.733c24.61 0 44.621-20.886 43.567-46.097-.693-16.552-10.271-30.744-23.967-37.689a145 145 0 0 0 5.967-14.036c8.686 1.926 16.502 6.249 22.756 12.261 8.908 8.567 14.646 20.562 15.204 33.934 1.182 28.234-21.231 51.627-48.794 51.627m-273.266-2.521c-34.306-9.671-57.912-45.836-48.574-85.691a69.8 69.8 0 0 1 9.615-22.408c9.29-14.138 23.537-24.555 40.207-28.658 5.794-1.425 11.509-2.102 17.068-2.102a67.25 67.25 0 0 1 29.776 6.918 7.86 7.86 0 0 0 3.485.82c3.501 0 6.781-2.365 7.727-6.124 10.672-42.415 45.02-75.075 87.733-82.275l5.99.466a.73.73 0 0 0 .721-.433l.43-.99q5.27-.527 10.675-.529c28.434 0 54.326 11.164 73.733 29.448-7.964-2.84-15.648-6.538-22.092-11.355-.979-.731-2.316-1.314-3.519-1.314-.733 0-1.416.216-1.936.749-4.762 4.872-10.131 9.025-15.766 12.502a95 95 0 0 0-33.539-6.083c-45.33 0-83.419 31.776-94.242 74.787-.844 3.357-3.772 5.467-6.898 5.467-1.039 0-2.1-.233-3.113-.731a60 60 0 0 0-26.585-6.176c-4.963 0-10.067.603-15.24 1.877-21.96 5.404-39.209 23.079-44.484 45.594-6.921 29.54 6.428 56.811 28.684 70.163z"/></mask><g mask="url(#a)"><path fill="url(#b)" d="M324.027 315.33h-14.733c24.61 0 44.621-20.886 43.567-46.097-.693-16.552-10.271-30.744-23.967-37.689a145 145 0 0 0 5.967-14.036c8.686 1.926 16.502 6.249 22.756 12.261 8.908 8.567 14.646 20.562 15.204 33.934 1.182 28.234-21.231 51.627-48.794 51.627m-273.266-2.521c-34.306-9.671-57.912-45.836-48.574-85.691a69.8 69.8 0 0 1 9.615-22.408c9.29-14.138 23.537-24.555 40.207-28.658 5.794-1.425 11.509-2.102 17.068-2.102a67.25 67.25 0 0 1 29.776 6.918 7.86 7.86 0 0 0 3.485.82c3.501 0 6.781-2.365 7.727-6.124 10.672-42.415 45.02-75.075 87.733-82.275l5.99.466a.73.73 0 0 0 .721-.433l.43-.99q5.27-.527 10.675-.529c28.434 0 54.326 11.164 73.733 29.448-7.964-2.84-15.648-6.538-22.092-11.355-.979-.731-2.316-1.314-3.519-1.314-.733 0-1.416.216-1.936.749-4.762 4.872-10.131 9.025-15.766 12.502a95 95 0 0 0-33.539-6.083c-45.33 0-83.419 31.776-94.242 74.787-.844 3.357-3.772 5.467-6.898 5.467-1.039 0-2.1-.233-3.113-.731a60 60 0 0 0-26.585-6.176c-4.963 0-10.067.603-15.24 1.877-21.96 5.404-39.209 23.079-44.484 45.594-6.921 29.54 6.428 56.811 28.684 70.163z"/></g><mask id="c" width="333" height="201" x="20" y="115" maskUnits="userSpaceOnUse" style="mask-type:luminance"><path fill="#fff" d="M309.294 315.33h-46.448l.309-21.291a5.36 5.36 0 0 0 4.341-.103c9.463-4.482 41.704-22.14 61.398-62.392 13.696 6.945 23.275 21.137 23.967 37.689 1.054 25.211-18.957 46.097-43.567 46.097m-258.677-8.599c-22.256-13.352-35.605-40.623-28.684-70.163 5.275-22.515 22.525-40.19 44.484-45.594 5.173-1.274 10.277-1.877 15.24-1.877a60 60 0 0 1 26.585 6.176 7 7 0 0 0 3.113.731c3.126 0 6.054-2.11 6.898-5.467 10.823-43.011 48.912-74.787 94.242-74.787a95 95 0 0 1 33.539 6.083c-15.969 9.855-34.069 14.281-46.524 14.281-1.417 0-2.763-.058-4.022-.172a5.344 5.344 0 0 0-5.824 5.454c.547 23.742-.088 51.87 10.228 79.999l-141.426-3.659q-.123-.004-.246-.003a9.5 9.5 0 0 0-6.696 2.766 9.47 9.47 0 0 0-2.782 6.929z"/></mask><g mask="url(#c)"><path fill="url(#d)" d="M309.294 315.33h-46.448l.309-21.291a5.36 5.36 0 0 0 4.341-.103c9.463-4.482 41.704-22.14 61.398-62.392 13.696 6.945 23.275 21.137 23.967 37.689 1.054 25.211-18.957 46.097-43.567 46.097m-258.677-8.599c-22.256-13.352-35.605-40.623-28.684-70.163 5.275-22.515 22.525-40.19 44.484-45.594 5.173-1.274 10.277-1.877 15.24-1.877a60 60 0 0 1 26.585 6.176 7 7 0 0 0 3.113.731c3.126 0 6.054-2.11 6.898-5.467 10.823-43.011 48.912-74.787 94.242-74.787a95 95 0 0 1 33.539 6.083c-15.969 9.855-34.069 14.281-46.524 14.281-1.417 0-2.763-.058-4.022-.172a5.344 5.344 0 0 0-5.824 5.454c.547 23.742-.088 51.87 10.228 79.999l-141.426-3.659q-.123-.004-.246-.003a9.5 9.5 0 0 0-6.696 2.766 9.47 9.47 0 0 0-2.782 6.929z"/></g><mask id="e" width="216" height="133" x="48" y="217" maskUnits="userSpaceOnUse" style="mask-type:luminance"><path fill="#fff" d="M258.648 349.293H55.295a3.77 3.77 0 0 1-3.76-3.756l-.774-32.728-.144-6.078-1.875-79.303a9.47 9.47 0 0 1 2.782-6.929 9.5 9.5 0 0 1 6.942-2.763l141.426 3.66q.848 2.309 1.794 4.616l-142.439-3.821-.178-.002a6.66 6.66 0 0 0-6.655 6.817l2.833 112.926a3.57 3.57 0 0 0 3.558 3.558h194.939a3.57 3.57 0 0 0 3.558-3.558l.769-51.046c1.408.924 2.84 1.84 4.307 2.754q.375.232.777.399l-.309 21.291-.336 23.236-.102 6.971a3.77 3.77 0 0 1-3.76 3.756"/></mask><g mask="url(#e)"><path fill="url(#f)" d="M258.648 349.293H55.295a3.77 3.77 0 0 1-3.76-3.756l-.774-32.728-.144-6.078-1.875-79.303a9.47 9.47 0 0 1 2.782-6.929 9.5 9.5 0 0 1 6.942-2.763l141.426 3.66q.848 2.309 1.794 4.616l-142.439-3.821-.178-.002a6.66 6.66 0 0 0-6.655 6.817l2.833 112.926a3.57 3.57 0 0 0 3.558 3.558h194.939a3.57 3.57 0 0 0 3.558-3.558l.769-51.046c1.408.924 2.84 1.84 4.307 2.754q.375.232.777.399l-.309 21.291-.336 23.236-.102 6.971a3.77 3.77 0 0 1-3.76 3.756"/></g><path fill="#7D97F4" d="M55.247 341.932a3.57 3.57 0 0 0 3.558 3.558h194.939a3.57 3.57 0 0 0 3.558-3.558l1.597-106.087c-.188-6.385-5.785-8.68-9.178-8.544l-190.474-5.11a6.657 6.657 0 0 0-6.833 6.815z"/><path fill="#fff" d="M255.196 291.533h-.005a.52.52 0 0 1-.516-.529l.126-8.603a.52.52 0 0 1 .521-.515h.004a.52.52 0 0 1 .517.529l-.126 8.605a.52.52 0 0 1-.521.513m.309-21.083h-.008a.52.52 0 0 1-.513-.529l.484-32.952c-.01-1.958-.603-3.521-1.767-4.634-2.17-2.081-5.616-1.975-5.762-1.967l-60.879-1.633a.52.52 0 0 1-.508-.534c.008-.288.229-.533.536-.508l60.843 1.633c.379-.023 4.048-.086 6.492 2.256 1.374 1.317 2.076 3.131 2.087 5.392l-.484 32.963a.52.52 0 0 1-.521.513"/><mask id="g" width="240" height="11" x="35" y="348" maskUnits="userSpaceOnUse" style="mask-type:luminance"><path fill="#fff" d="M35.795 358.995h238.231a.76.76 0 0 0 .756-.758v-8.753a.76.76 0 0 0-.756-.757H35.795a.76.76 0 0 0-.758.757v8.753a.76.76 0 0 0 .758.758"/></mask><g mask="url(#g)"><path fill="url(#h)" d="M35.795 358.995h238.231a.76.76 0 0 0 .756-.758v-8.753a.76.76 0 0 0-.756-.757H35.795a.76.76 0 0 0-.758.757v8.753a.76.76 0 0 0 .758.758"/></g><path fill="#91B3FA" d="M139.821 340.315H64.764a5.01 5.01 0 0 1-5.01-5.011v-97.972a5.01 5.01 0 0 1 5.202-5.008l75.056 2.874a5.007 5.007 0 0 1 4.819 5.006v95.1a5.01 5.01 0 0 1-5.01 5.011"/><path fill="#C9DAFD" d="M124.892 277.365H75.175a.715.715 0 0 1-.714-.714v-5.179c0-.394.32-.714.714-.714h49.717c.394 0 .714.32.714.714v5.179c0 .394-.32.714-.714.714m.101 10.552H75.275a.715.715 0 0 1-.714-.715v-5.178c0-.395.32-.715.714-.715h49.718c.393 0 .714.32.714.715v5.178a.715.715 0 0 1-.714.715m.3 10.772H75.575a.715.715 0 0 1-.714-.714v-5.179c0-.394.32-.714.714-.714h49.718c.393 0 .714.32.714.714v5.179a.715.715 0 0 1-.714.714m.1 10.551H75.676a.714.714 0 0 1-.714-.714v-5.179c0-.394.32-.714.714-.714h49.717c.394 0 .714.32.714.714v5.179c0 .395-.32.714-.714.714"/><path fill="#BFCCFA" d="M233.925 277.357h-72.103a.715.715 0 0 1-.715-.714v-5.179c0-.394.321-.714.715-.714h70.742q1.022.98 2.075 1.956v3.937c0 .395-.32.714-.714.714m.227 10.56h-72.103a.714.714 0 0 1-.714-.715v-5.178c0-.395.319-.715.714-.715h72.103c.395 0 .715.32.715.715v5.178c0 .395-.32.715-.715.715m-29.961 10.772h-42.142a.714.714 0 0 1-.714-.714v-5.179c0-.394.319-.714.714-.714h42.142c.395 0 .715.32.715.714v5.179c0 .394-.32.714-.715.714m-4.05-52.564h-1.12a1.01 1.01 0 0 1-1.007-1.007v-3.829a2.48 2.48 0 0 0-2.481-2.481h-6.939a2.48 2.48 0 0 0-2.482 2.481v3.829c0 .556-.451 1.007-1.007 1.007h-1.121a1.006 1.006 0 0 1-1.006-1.007v-3.829a5.614 5.614 0 0 1 5.616-5.614h6.939a5.615 5.615 0 0 1 5.616 5.614v3.829c0 .556-.45 1.007-1.008 1.007m1.39 19.636h-18.935a2.1 2.1 0 0 1-2.1-2.1V249.13c0-1.16.94-2.102 2.1-2.102h18.935c1.16 0 2.1.942 2.1 2.102v14.531a2.1 2.1 0 0 1-2.1 2.1m-9.468-15.005a3.525 3.525 0 0 0-3.504 3.32 3.51 3.51 0 0 0 1.707 3.204l-.911 3.792a.78.78 0 0 0 .757.961h3.903a.78.78 0 0 0 .757-.961l-.911-3.792a3.51 3.51 0 0 0-1.798-6.524"/><path fill="#91B3FA" d="M255.256 76.486a.452.452 0 0 1-.394-.67q.436-.782.846-1.578a.452.452 0 0 1 .801.415q-.417.806-.858 1.601a.45.45 0 0 1-.395.232m-6.438-31.089a.72.72 0 0 0-.434-.72l-8.085-3.513a38.4 38.4 0 0 0-3.85-11.83l4.462-7.596a.72.72 0 0 0-.075-.837l-6.872-8.035a.72.72 0 0 0-.816-.202l-8.195 3.23a38.4 38.4 0 0 0-11.091-5.635l-2.217-8.53a.72.72 0 0 0-.645-.54L200.459.366a.725.725 0 0 0-.721.433l-3.512 8.085a38.4 38.4 0 0 0-11.829 3.85l-7.596-4.463a.73.73 0 0 0-.838.075l-8.034 6.873a.72.72 0 0 0-.204.817l3.231 8.194a38.4 38.4 0 0 0-5.634 11.091l-8.532 2.217a.73.73 0 0 0-.54.646l-.821 10.541a.72.72 0 0 0 .434.72l8.084 3.512a38.5 38.5 0 0 0 3.849 11.83l-4.461 7.596a.72.72 0 0 0 .074.837l6.874 8.035a.72.72 0 0 0 .815.203l8.195-3.232a38.4 38.4 0 0 0 11.091 5.636l2.218 8.53a.72.72 0 0 0 .644.54l10.542.822a.73.73 0 0 0 .721-.433l3.511-8.084a38.4 38.4 0 0 0 11.83-3.85l7.596 4.462a.725.725 0 0 0 .837-.075l8.035-6.872a.73.73 0 0 0 .204-.816l-3.232-8.196a38.4 38.4 0 0 0 5.635-11.09l8.532-2.218a.73.73 0 0 0 .54-.646z"/><path fill="#DEE8FD" d="M202.101 57.128a10 10 0 0 1-5.792-1.85c-4.531-3.207-5.608-9.5-2.402-14.03a10 10 0 0 1 6.518-4.107 10 10 0 0 1 7.512 1.704 10 10 0 0 1 4.107 6.517 10 10 0 0 1-1.705 7.513 10 10 0 0 1-6.518 4.107q-.862.147-1.72.146m.04-18.781q-.742 0-1.488.127a8.65 8.65 0 0 0-5.641 3.554c-2.776 3.921-1.843 9.37 2.078 12.144a8.64 8.64 0 0 0 6.504 1.476 8.65 8.65 0 0 0 5.639-3.554 8.66 8.66 0 0 0 1.478-6.502 8.66 8.66 0 0 0-3.555-5.642 8.65 8.65 0 0 0-5.015-1.603"/><path fill="#DEE8FD" d="M201.94 73.253q-1.034 0-2.076-.081c-6.974-.543-13.32-3.77-17.866-9.086-4.096-4.786-6.291-10.75-6.291-16.98q0-1.035.081-2.078c.543-6.974 3.77-13.319 9.087-17.867 4.785-4.094 10.749-6.29 16.981-6.29q1.035 0 2.077.08c6.975.545 13.319 3.772 17.866 9.087a26.3 26.3 0 0 1 3.158 4.595l-1.19.643a25 25 0 0 0-2.995-4.359 24.68 24.68 0 0 0-16.944-8.616 25 25 0 0 0-1.959-.076c-5.913 0-11.573 2.079-16.115 5.964-5.041 4.313-8.102 10.33-8.618 16.944a26 26 0 0 0-.076 1.97c0 5.909 2.083 11.566 5.965 16.105 4.312 5.04 10.33 8.1 16.944 8.616q.989.076 1.971.076c5.912 0 11.564-2.081 16.103-5.964a24.8 24.8 0 0 0 7.402-10.964l1.284.428a26.16 26.16 0 0 1-7.807 11.564c-4.786 4.094-10.75 6.29-16.982 6.29"/><path fill="#91B3FA" d="M303.256 74.341a.375.375 0 0 0-.224-.37l-4.152-1.804a19.7 19.7 0 0 0-1.978-6.078l2.292-3.9a.37.37 0 0 0-.037-.43l-3.531-4.128a.37.37 0 0 0-.42-.105l-4.209 1.66a19.7 19.7 0 0 0-5.697-2.895l-1.139-4.382a.37.37 0 0 0-.332-.277l-5.415-.422a.37.37 0 0 0-.37.222l-1.804 4.153a19.8 19.8 0 0 0-6.077 1.977l-3.902-2.292a.37.37 0 0 0-.43.04l-4.127 3.529a.37.37 0 0 0-.103.42l1.659 4.21a19.7 19.7 0 0 0-2.895 5.697l-4.383 1.139a.37.37 0 0 0-.277.33l-.422 5.415a.37.37 0 0 0 .224.37l4.152 1.805a19.7 19.7 0 0 0 1.978 6.076l-2.292 3.903a.37.37 0 0 0 .037.43l3.531 4.127c.104.12.272.162.42.105l4.209-1.66a19.8 19.8 0 0 0 5.697 2.895l1.139 4.382c.04.153.173.265.332.277l5.415.422a.37.37 0 0 0 .37-.223l1.804-4.152a19.7 19.7 0 0 0 6.077-1.98l3.902 2.293a.37.37 0 0 0 .43-.038l4.126-3.53a.37.37 0 0 0 .105-.419l-1.66-4.21a19.7 19.7 0 0 0 2.895-5.698l4.383-1.138a.37.37 0 0 0 .277-.331z"/><path fill="#DEE8FD" d="M279.258 80.696a5.46 5.46 0 0 1-3.165-1.011 5.505 5.505 0 0 1-1.312-7.666 5.46 5.46 0 0 1 3.561-2.243q.471-.08.939-.08a5.46 5.46 0 0 1 3.165 1.01 5.46 5.46 0 0 1 2.244 3.561 5.46 5.46 0 0 1-.932 4.105 5.46 5.46 0 0 1-3.561 2.244q-.47.08-.939.08m.018-9.645a4.14 4.14 0 0 0-3.391 1.75 4.151 4.151 0 0 0 3.376 6.542q.353 0 .707-.06a4.12 4.12 0 0 0 2.686-1.692 4.13 4.13 0 0 0 .702-3.094 4.12 4.12 0 0 0-1.691-2.685 4.12 4.12 0 0 0-2.389-.761"/><path fill="#DEE8FD" d="M279.177 88.98q-.546 0-1.094-.044a13.7 13.7 0 0 1-9.401-4.78 13.72 13.72 0 0 1-3.304-8.95c0-3.892 1.635-7.761 4.818-10.483a13.72 13.72 0 0 1 8.948-3.304 13.76 13.76 0 0 1 10.598 4.954 14 14 0 0 1 1.421 2.056l.004.008.019.032.031.057.017.03q.029.05.054.1l-1.19.643a12.6 12.6 0 0 0-1.499-2.183 12.41 12.41 0 0 0-9.455-4.344c-.999 0-2 .12-2.979.362a12.3 12.3 0 0 0-5.09 2.617 12.4 12.4 0 0 0-4.345 9.453c0 2.86.979 5.733 2.979 8.071a12.4 12.4 0 0 0 9.454 4.344 12.42 12.42 0 0 0 11.774-8.465l1.285.43a13.8 13.8 0 0 1-4.109 6.085 13.68 13.68 0 0 1-8.936 3.31"/><mask id="i" width="156" height="187" x="189" y="108" maskUnits="userSpaceOnUse" style="mask-type:luminance"><path fill="#fff" d="M265.211 294.449a5.36 5.36 0 0 1-2.833-.809 217 217 0 0 1-4.307-2.754c-8.938-5.869-16.701-11.952-23.432-18.18a163 163 0 0 1-2.075-1.956c-13.943-13.388-23.268-27.434-29.533-41.586q-.233-.528-.461-1.056-.452-1.047-.884-2.096a132 132 0 0 1-1.794-4.616c-10.316-28.13-9.681-56.258-10.228-80a5.344 5.344 0 0 1 5.824-5.454c1.259.114 2.605.172 4.022.172 12.455 0 30.555-4.426 46.524-14.281 5.635-3.477 11.004-7.63 15.766-12.502.52-.533 1.203-.749 1.936-.749 1.203 0 2.54.583 3.519 1.314 6.444 4.817 14.128 8.515 22.092 11.355 19.242 6.86 40.12 8.71 49.078 9.202a5.34 5.34 0 0 1 5.017 4.787c3.471 33.52-.676 60.594-8.581 82.268a145 145 0 0 1-5.967 14.037c-19.694 40.251-51.935 57.909-61.398 62.391a5.3 5.3 0 0 1-2.285.513m-65.715-150.376c-.485 0-.938.188-1.274.533-.335.34-.515.791-.507 1.27l.053 2.864c.377 21.489.805 45.844 9.542 69.763 9.782 26.781 28.492 48.72 57.2 67.071a1.79 1.79 0 0 0 1.769.086c7.48-3.846 26.622-15.126 42.764-36.775 21.614-28.988 30.644-65.698 26.838-109.111a1.77 1.77 0 0 0-1.635-1.616c-16.371-1.206-47.047-5.361-68.55-19.629a1.77 1.77 0 0 0-2.165.156c-19.572 17.537-46.257 25.388-64.035 25.388m65.973 141.052c-.196 0-.395-.056-.566-.164-28.568-18.263-47.183-40.083-56.909-66.708-8.695-23.804-9.123-48.094-9.498-69.527l-.052-2.864a1.03 1.03 0 0 1 .297-.746c.2-.202.468-.315.769-.315 17.903 0 44.792-7.907 64.507-25.573a1.04 1.04 0 0 1 1.276-.093c21.643 14.361 52.458 18.538 68.9 19.751.512.037.917.438.962.952 3.789 43.228-5.192 79.771-26.696 108.611-16.051 21.528-35.078 32.741-42.514 36.563a1.05 1.05 0 0 1-.476.113m-26.867-103.029a6.35 6.35 0 0 0-6.351 6.352v43.93a6.35 6.35 0 0 0 6.351 6.351h57.241a6.35 6.35 0 0 0 6.351-6.351v-43.93a6.35 6.35 0 0 0-6.351-6.352zm18.129-24.851h20.983c4.142 0 7.5 3.359 7.5 7.502v11.573a3.045 3.045 0 0 0 3.045 3.045h3.387a3.043 3.043 0 0 0 3.043-3.045v-11.573c0-9.376-7.599-16.977-16.975-16.977h-20.983c-9.376 0-16.977 7.601-16.977 16.977v11.573a3.045 3.045 0 0 0 3.045 3.045h3.387a3.043 3.043 0 0 0 3.043-3.045v-11.573a7.5 7.5 0 0 1 7.502-7.502m16.393 70.214h-11.803a2.354 2.354 0 0 1-2.288-2.903l2.754-11.466a10.61 10.61 0 0 1-5.16-9.687c.281-5.325 4.596-9.684 9.918-10.015q.34-.02.677-.02c5.86 0 10.611 4.749 10.611 10.61 0 3.873-2.077 7.259-5.175 9.112l2.754 11.466a2.354 2.354 0 0 1-2.288 2.903"/></mask><g mask="url(#i)"><path fill="url(#j)" d="M265.211 294.449a5.36 5.36 0 0 1-2.833-.809 217 217 0 0 1-4.307-2.754c-8.938-5.869-16.701-11.952-23.432-18.18a163 163 0 0 1-2.075-1.956c-13.943-13.388-23.268-27.434-29.533-41.586q-.233-.528-.461-1.056-.452-1.047-.884-2.096a132 132 0 0 1-1.794-4.616c-10.316-28.13-9.681-56.258-10.228-80a5.344 5.344 0 0 1 5.824-5.454c1.259.114 2.605.172 4.022.172 12.455 0 30.555-4.426 46.524-14.281 5.635-3.477 11.004-7.63 15.766-12.502.52-.533 1.203-.749 1.936-.749 1.203 0 2.54.583 3.519 1.314 6.444 4.817 14.128 8.515 22.092 11.355 19.242 6.86 40.12 8.71 49.078 9.202a5.34 5.34 0 0 1 5.017 4.787c3.471 33.52-.676 60.594-8.581 82.268a145 145 0 0 1-5.967 14.037c-19.694 40.251-51.935 57.909-61.398 62.391a5.3 5.3 0 0 1-2.285.513m-65.715-150.376c-.485 0-.938.188-1.274.533-.335.34-.515.791-.507 1.27l.053 2.864c.377 21.489.805 45.844 9.542 69.763 9.782 26.781 28.492 48.72 57.2 67.071a1.79 1.79 0 0 0 1.769.086c7.48-3.846 26.622-15.126 42.764-36.775 21.614-28.988 30.644-65.698 26.838-109.111a1.77 1.77 0 0 0-1.635-1.616c-16.371-1.206-47.047-5.361-68.55-19.629a1.77 1.77 0 0 0-2.165.156c-19.572 17.537-46.257 25.388-64.035 25.388m65.973 141.052c-.196 0-.395-.056-.566-.164-28.568-18.263-47.183-40.083-56.909-66.708-8.695-23.804-9.123-48.094-9.498-69.527l-.052-2.864a1.03 1.03 0 0 1 .297-.746c.2-.202.468-.315.769-.315 17.903 0 44.792-7.907 64.507-25.573a1.04 1.04 0 0 1 1.276-.093c21.643 14.361 52.458 18.538 68.9 19.751.512.037.917.438.962.952 3.789 43.228-5.192 79.771-26.696 108.611-16.051 21.528-35.078 32.741-42.514 36.563a1.05 1.05 0 0 1-.476.113m-26.867-103.029a6.35 6.35 0 0 0-6.351 6.352v43.93a6.35 6.35 0 0 0 6.351 6.351h57.241a6.35 6.35 0 0 0 6.351-6.351v-43.93a6.35 6.35 0 0 0-6.351-6.352zm18.129-24.851h20.983c4.142 0 7.5 3.359 7.5 7.502v11.573a3.045 3.045 0 0 0 3.045 3.045h3.387a3.043 3.043 0 0 0 3.043-3.045v-11.573c0-9.376-7.599-16.977-16.975-16.977h-20.983c-9.376 0-16.977 7.601-16.977 16.977v11.573a3.045 3.045 0 0 0 3.045 3.045h3.387a3.043 3.043 0 0 0 3.043-3.045v-11.573a7.5 7.5 0 0 1 7.502-7.502m16.393 70.214h-11.803a2.354 2.354 0 0 1-2.288-2.903l2.754-11.466a10.61 10.61 0 0 1-5.16-9.687c.281-5.325 4.596-9.684 9.918-10.015q.34-.02.677-.02c5.86 0 10.611 4.749 10.611 10.61 0 3.873-2.077 7.259-5.175 9.112l2.754 11.466a2.354 2.354 0 0 1-2.288 2.903"/></g><mask id="k" width="140" height="168" x="197" y="118" maskUnits="userSpaceOnUse" style="mask-type:luminance"><path fill="#fff" d="M265.471 285.854c-.335 0-.67-.094-.961-.28-28.708-18.351-47.418-40.29-57.2-67.071-8.737-23.919-9.165-48.274-9.542-69.763l-.053-2.864c-.008-.479.172-.93.507-1.27a1.76 1.76 0 0 1 1.274-.534c17.778 0 44.463-7.85 64.035-25.387a1.77 1.77 0 0 1 2.165-.156c21.503 14.268 52.179 18.423 68.55 19.629a1.77 1.77 0 0 1 1.635 1.616c3.806 43.413-5.224 80.122-26.838 109.111-16.142 21.649-35.284 32.929-42.764 36.775-.254.13-.531.194-.808.194M199.51 144.801a1.06 1.06 0 0 0-.768.315 1.03 1.03 0 0 0-.298.746l.052 2.864c.375 21.433.803 45.723 9.498 69.527 9.726 26.625 28.341 48.445 56.909 66.708.171.108.37.164.566.164.164 0 .327-.037.476-.114 7.436-3.821 26.463-15.034 42.514-36.562 21.504-28.841 30.485-65.383 26.696-108.611a1.04 1.04 0 0 0-.962-.953c-16.442-1.212-47.257-5.389-68.9-19.75a1.04 1.04 0 0 0-1.276.093c-19.715 17.665-46.604 25.573-64.507 25.573"/></mask><g mask="url(#k)"><path fill="url(#l)" d="M265.471 285.854c-.335 0-.67-.094-.961-.28-28.708-18.351-47.418-40.29-57.2-67.071-8.737-23.919-9.165-48.274-9.542-69.763l-.053-2.864c-.008-.479.172-.93.507-1.27a1.76 1.76 0 0 1 1.274-.534c17.778 0 44.463-7.85 64.035-25.387a1.77 1.77 0 0 1 2.165-.156c21.503 14.268 52.179 18.423 68.55 19.629a1.77 1.77 0 0 1 1.635 1.616c3.806 43.413-5.224 80.122-26.838 109.111-16.142 21.649-35.284 32.929-42.764 36.775-.254.13-.531.194-.808.194M199.51 144.801a1.06 1.06 0 0 0-.768.315 1.03 1.03 0 0 0-.298.746l.052 2.864c.375 21.433.803 45.723 9.498 69.527 9.726 26.625 28.341 48.445 56.909 66.708.171.108.37.164.566.164.164 0 .327-.037.476-.114 7.436-3.821 26.463-15.034 42.514-36.562 21.504-28.841 30.485-65.383 26.696-108.611a1.04 1.04 0 0 0-.962-.953c-16.442-1.212-47.257-5.389-68.9-19.75a1.04 1.04 0 0 0-1.276.093c-19.715 17.665-46.604 25.573-64.507 25.573"/></g><mask id="m" width="56" height="33" x="239" y="147" maskUnits="userSpaceOnUse" style="mask-type:luminance"><path fill="#fff" d="M291.646 179.365h-3.387a3.045 3.045 0 0 1-3.045-3.045v-11.573a7.5 7.5 0 0 0-7.5-7.502h-20.983a7.5 7.5 0 0 0-7.502 7.502v11.573a3.044 3.044 0 0 1-3.043 3.045h-3.387a3.045 3.045 0 0 1-3.045-3.045v-11.573c0-9.376 7.601-16.977 16.977-16.977h20.983c9.376 0 16.975 7.601 16.975 16.977v11.573a3.044 3.044 0 0 1-3.043 3.045"/></mask><g mask="url(#m)"><path fill="url(#n)" d="M291.646 179.365h-3.387a3.045 3.045 0 0 1-3.045-3.045v-11.573a7.5 7.5 0 0 0-7.5-7.502h-20.983a7.5 7.5 0 0 0-7.502 7.502v11.573a3.044 3.044 0 0 1-3.043 3.045h-3.387a3.045 3.045 0 0 1-3.045-3.045v-11.573c0-9.376 7.601-16.977 16.977-16.977h20.983c9.376 0 16.975 7.601 16.975 16.977v11.573a3.044 3.044 0 0 1-3.043 3.045"/></g><mask id="o" width="71" height="57" x="232" y="182" maskUnits="userSpaceOnUse" style="mask-type:luminance"><path fill="#fff" d="M295.843 238.729h-57.241a6.35 6.35 0 0 1-6.351-6.351v-43.93a6.35 6.35 0 0 1 6.351-6.352h57.241a6.35 6.35 0 0 1 6.351 6.352v43.93a6.35 6.35 0 0 1-6.351 6.351m-28.621-45.361q-.336 0-.677.02c-5.322.331-9.637 4.69-9.918 10.015a10.61 10.61 0 0 0 5.16 9.687l-2.754 11.466a2.354 2.354 0 0 0 2.288 2.903h11.803a2.354 2.354 0 0 0 2.288-2.903l-2.754-11.466a10.6 10.6 0 0 0 5.175-9.112c0-5.861-4.75-10.61-10.611-10.61"/></mask><g mask="url(#o)"><path fill="url(#p)" d="M295.843 238.729h-57.241a6.35 6.35 0 0 1-6.351-6.351v-43.93a6.35 6.35 0 0 1 6.351-6.352h57.241a6.35 6.35 0 0 1 6.351 6.352v43.93a6.35 6.35 0 0 1-6.351 6.351m-28.621-45.361q-.336 0-.677.02c-5.322.331-9.637 4.69-9.918 10.015a10.61 10.61 0 0 0 5.16 9.687l-2.754 11.466a2.354 2.354 0 0 0 2.288 2.903h11.803a2.354 2.354 0 0 0 2.288-2.903l-2.754-11.466a10.6 10.6 0 0 0 5.175-9.112c0-5.861-4.75-10.61-10.611-10.61"/></g><mask id="q" width="27" height="23" x="27" y="167" maskUnits="userSpaceOnUse" style="mask-type:luminance"><path fill="#fff" d="M47.808 167.736s4.636.245 5.205 9.783c0 0-10.75 9.637-25.272 11.93-1.09.173 1.524-7.441 1.917-8.473 1.87-4.907 7.76-8.067 18.15-13.24"/></mask><g mask="url(#q)"><path fill="url(#r)" d="M47.808 167.736s4.636.245 5.205 9.783c0 0-10.75 9.637-25.272 11.93-1.09.173 1.524-7.441 1.917-8.473 1.87-4.907 7.76-8.067 18.15-13.24"/></g><path fill="#7D97F4" d="M100.019 156.522h-9.783s-30.027-33.163-49.72-36.509c0 0-13.71 17.499.73 50.197 1.161 2.63 4.41 3.798 6.833 2.251a3.92 3.92 0 0 0 1.561-1.861l-1.16-27.918s25.612 22.401 30.065 26.724c4.452 4.323 27.082 1.688 21.474-12.884"/><mask id="s" width="24" height="14" x="5" y="217" maskUnits="userSpaceOnUse" style="mask-type:luminance"><path fill="#fff" d="M5.437 226.147c4.1-3.593 10.632-7.624 20.062-8.78l3.189 1.951s-2.034 3.001-5.749 6.169c-3.414 1.982-8.686 4.668-13.057 5.251-4.25.565-4.877-2.003-4.445-4.591"/></mask><g mask="url(#s)"><path fill="url(#t)" d="M5.437 226.147c4.1-3.593 10.632-7.624 20.062-8.78l3.189 1.951s-2.034 3.001-5.749 6.169c-3.414 1.982-8.686 4.668-13.057 5.251-4.25.565-4.877-2.003-4.445-4.591"/></g><path fill="#91B3FA" d="M29.658 180.976c2.526.818 3.637 4.397 10.046 2.03 6.2-2.289 10.81-5.242 13.18-6.945.054.463.098.945.129 1.458 0 0-11.335 10.781-25.856 13.076-1.09.171-1.955-.916-1.562-1.948a36.5 36.5 0 0 1 4.063-7.671M2.349 229.215a34 34 0 0 1 3.088-3.068c-.432 2.588.195 5.156 4.445 4.591 4.37-.583 9.643-3.269 13.057-5.251-4.28 3.649-10.79 7.523-19.009 7.295-1.825-.051-2.788-2.197-1.581-3.567"/><path fill="#7D97F4" d="m99.662 163.6-45.814.496s-26.163 21.646-30.909 54.653c0 0-.787 2.428 3.942 2.844 0 0 15.818-10.332 26.132-28.597C65.659 170.6 90.714 180.68 90.714 180.68c12.037 2.657 21.616 1.668 28.628-9.12z"/><mask id="u" width="49" height="39" x="58" y="126" maskUnits="userSpaceOnUse" style="mask-type:luminance"><path fill="#fff" d="M98.58 126.694s-4.932 24.717-29.097 34.495l-8.596-1.013-2.028 3.234 20.163.643s17.234-6.827 26.367-25.427c.301-.615 5.33-10.999-6.808-11.932"/></mask><g mask="url(#u)"><path fill="url(#v)" d="M98.58 126.694s-4.932 24.717-29.097 34.495l-8.596-1.013-2.028 3.234 20.163.643s17.234-6.827 26.367-25.427c.301-.615 5.33-10.999-6.808-11.932"/></g><mask id="w" width="54" height="70" x="95" y="102" maskUnits="userSpaceOnUse" style="mask-type:luminance"><path fill="#fff" d="M95.938 163.196s5.607-15.245 6.813-30.059c0 0-4.103-3.526-6.668-5.048a1.855 1.855 0 0 1-.724-2.404c1.886-3.907 13.288-19.243 14.142-19.456 4.642-1.158 23.682-10.211 37.092 8.131 5.755 7.871-1.142 32.104-27.251 57.2-8.401 1.368-16.256-1.053-23.404-8.364"/></mask><g mask="url(#w)"><path fill="url(#x)" d="M95.938 163.196s5.607-15.245 6.813-30.059c0 0-4.103-3.526-6.668-5.048a1.855 1.855 0 0 1-.724-2.404c1.886-3.907 13.288-19.243 14.142-19.456 4.642-1.158 23.682-10.211 37.092 8.131 5.755 7.871-1.142 32.104-27.251 57.2-8.401 1.368-16.256-1.053-23.404-8.364"/></g><mask id="y" width="63" height="28" x="63" y="136" maskUnits="userSpaceOnUse" style="mask-type:luminance"><path fill="#fff" d="M117.548 136.477s-15.582 18.45-35.504 21.147c0 0-5.148-4.693-8.977-3.018-3.828 1.676-9.078 9.073-9.078 9.073h25.58s24.186-.852 36.272-15.518c-.973-5.132-3.885-8.198-8.293-11.684"/></mask><g mask="url(#y)"><path fill="url(#z)" d="M117.548 136.477s-15.582 18.45-35.504 21.147c0 0-5.148-4.693-8.977-3.018-3.828 1.676-9.078 9.073-9.078 9.073h25.58s24.186-.852 36.272-15.518c-.973-5.132-3.885-8.198-8.293-11.684"/></g><mask id="A" width="16" height="16" x="115" y="93" maskUnits="userSpaceOnUse" style="mask-type:luminance"><path fill="#fff" d="m126.638 93.289 3.409 11.371a1.25 1.25 0 0 1-.485 1.391c-1.641 1.126-5.932 3.362-11.817 1.189a1.86 1.86 0 0 1-1.192-1.593l-.809-9.907z"/></mask><g mask="url(#A)"><path fill="url(#B)" d="m126.638 93.289 3.409 11.371a1.25 1.25 0 0 1-.485 1.391c-1.641 1.126-5.932 3.362-11.817 1.189a1.86 1.86 0 0 1-1.192-1.593l-.809-9.907z"/></g><mask id="C" width="24" height="26" x="106" y="76" maskUnits="userSpaceOnUse" style="mask-type:luminance"><path fill="#fff" d="M106.675 84.079s1.675 11.787 6.203 15.412 13.351.896 16.33-7.99l-5.937-15.195z"/></mask><g mask="url(#C)"><path fill="url(#D)" d="M106.675 84.079s1.675 11.787 6.203 15.412 13.351.896 16.33-7.99l-5.937-15.195z"/></g><mask id="E" width="37" height="27" x="99" y="66" maskUnits="userSpaceOnUse" style="mask-type:luminance"><path fill="#fff" d="M123.94 86.14a.584.584 0 0 1-.759-.468c-.163-1.088-.572-3.242-1.397-4.71 0 0 .432-1.545-3.909.791-4.34 2.337-10.859 5.767-14.698 3.724-3.742-1.992-7.533-12.019 2.358-10.162a.582.582 0 0 0 .693-.61c-.121-1.649.042-5.44 3.883-6.657 3.593-1.14 5.559.483 6.37 1.462a.58.58 0 0 0 .908-.014c1.077-1.406 3.999-4.397 8.303-2.5 3.543 1.562 4.095 3.746 4.036 5.105a.582.582 0 0 0 .829.555c1.085-.5 2.831-.76 4.504 1.335 2.312 2.898-.992 5.41-1.984 6.069a.59.59 0 0 0-.264.482c-.009 1.506-.244 8.078-3.538 11.785a.588.588 0 0 1-.978-.169l-2.535-6.043a.587.587 0 0 0-.721-.33z"/></mask><g mask="url(#E)"><path fill="url(#F)" d="M123.94 86.14a.584.584 0 0 1-.759-.468c-.163-1.088-.572-3.242-1.397-4.71 0 0 .432-1.545-3.909.791-4.34 2.337-10.859 5.767-14.698 3.724-3.742-1.992-7.533-12.019 2.358-10.162a.582.582 0 0 0 .693-.61c-.121-1.649.042-5.44 3.883-6.657 3.593-1.14 5.559.483 6.37 1.462a.58.58 0 0 0 .908-.014c1.077-1.406 3.999-4.397 8.303-2.5 3.543 1.562 4.095 3.746 4.036 5.105a.582.582 0 0 0 .829.555c1.085-.5 2.831-.76 4.504 1.335 2.312 2.898-.992 5.41-1.984 6.069a.59.59 0 0 0-.264.482c-.009 1.506-.244 8.078-3.538 11.785a.588.588 0 0 1-.978-.169l-2.535-6.043a.587.587 0 0 0-.721-.33z"/></g><mask id="G" width="6" height="9" x="123" y="82" maskUnits="userSpaceOnUse" style="mask-type:luminance"><path fill="#fff" d="M123.886 87.366s1.549-6.308 3.901-4.26c2.354 2.049-.612 6.555-3.308 7.415z"/></mask><g mask="url(#G)"><path fill="url(#H)" d="M123.886 87.366s1.549-6.308 3.901-4.26c2.354 2.049-.612 6.555-3.308 7.415z"/></g><mask id="I" width="34" height="45" x="32" y="122" maskUnits="userSpaceOnUse" style="mask-type:luminance"><path fill="#fff" d="m65.277 165.111-11.485-38.302a3.92 3.92 0 0 0-3.484-2.783L34.8 122.965a2.2 2.2 0 0 0-2.225 2.923l12.84 36.579a3.22 3.22 0 0 0 2.713 2.137l15.27 1.694z"/></mask><g mask="url(#I)"><path fill="url(#J)" d="m65.277 165.111-11.485-38.302a3.92 3.92 0 0 0-3.484-2.783L34.8 122.965a2.2 2.2 0 0 0-2.225 2.923l12.84 36.579a3.22 3.22 0 0 0 2.713 2.137l15.27 1.694z"/></g><path fill="#91B3FA" d="M44.095 139.791c.858 1.731 2.338 2.745 3.308 2.264.969-.48 1.06-2.272.202-4.003-.858-1.73-2.338-2.745-3.308-2.265-.969.481-1.06 2.273-.202 4.004"/><mask id="K" width="37" height="6" x="61" y="161" maskUnits="userSpaceOnUse" style="mask-type:luminance"><path fill="#fff" d="m63.4 166.298.074-.001 32.537-1.645a1.46 1.46 0 0 0 1.383-1.53c-.042-.804-.729-1.436-1.53-1.383l-32.537 1.646a1.457 1.457 0 0 0 .072 2.913"/></mask><g mask="url(#K)"><path fill="url(#L)" d="m63.4 166.298.074-.001 32.537-1.645a1.46 1.46 0 0 0 1.383-1.53c-.042-.804-.729-1.436-1.53-1.383l-32.537 1.646a1.457 1.457 0 0 0 .072 2.913"/></g><mask id="M" width="4" height="18" x="102" y="116" maskUnits="userSpaceOnUse" style="mask-type:luminance"><path fill="#fff" d="M102.751 133.362a.224.224 0 0 1-.225-.225c-.023-6.868 2.62-15.957 2.647-16.048a.224.224 0 0 1 .279-.153c.12.035.188.159.154.278-.027.092-2.652 9.121-2.63 15.922a.226.226 0 0 1-.225.226"/></mask><g mask="url(#M)"><path fill="url(#N)" d="M102.751 133.362a.224.224 0 0 1-.225-.225c-.023-6.868 2.62-15.957 2.647-16.048a.224.224 0 0 1 .279-.153c.12.035.188.159.154.278-.027.092-2.652 9.121-2.63 15.922a.226.226 0 0 1-.225.226"/></g><mask id="O" width="11" height="17" x="117" y="120" maskUnits="userSpaceOnUse" style="mask-type:luminance"><path fill="#fff" d="M117.548 136.703a.23.23 0 0 1-.14-.048.226.226 0 0 1-.036-.317c.071-.09 7.142-9.08 9.563-15.215a.223.223 0 0 1 .292-.127.226.226 0 0 1 .127.294c-2.444 6.194-9.558 15.236-9.629 15.328a.23.23 0 0 1-.177.085"/></mask><g mask="url(#O)"><path fill="url(#P)" d="M117.548 136.703a.23.23 0 0 1-.14-.048.226.226 0 0 1-.036-.317c.071-.09 7.142-9.08 9.563-15.215a.223.223 0 0 1 .292-.127.226.226 0 0 1 .127.294c-2.444 6.194-9.558 15.236-9.629 15.328a.23.23 0 0 1-.177.085"/></g><mask id="Q" width="19" height="18" x="126" y="133" maskUnits="userSpaceOnUse" style="mask-type:luminance"><path fill="#fff" d="m127.573 150.527-1.286-1.819a.225.225 0 0 1 .053-.315.227.227 0 0 1 .315.053l1.076 1.522c10.035-4.399 16.247-16.405 16.31-16.527a.223.223 0 0 1 .302-.097.22.22 0 0 1 .098.302c-.063.125-6.415 12.405-16.701 16.809z"/></mask><g mask="url(#Q)"><path fill="url(#R)" d="m127.573 150.527-1.286-1.819a.225.225 0 0 1 .053-.315.227.227 0 0 1 .315.053l1.076 1.522c10.035-4.399 16.247-16.405 16.31-16.527a.223.223 0 0 1 .302-.097.22.22 0 0 1 .098.302c-.063.125-6.415 12.405-16.701 16.809z"/></g><defs><linearGradient id="b" x1="30.1237" x2="318.579" y1="12.7091" y2="460.313" gradientUnits="userSpaceOnUse"><stop stop-color="#4F52FF"/><stop offset="1" stop-color="#893976"/></linearGradient><linearGradient id="d" x1="30.1237" x2="318.579" y1="12.7091" y2="460.313" gradientUnits="userSpaceOnUse"><stop stop-color="#5D67FE"/><stop offset="1" stop-color="#A36EC3"/></linearGradient><linearGradient id="f" x1="175.546" x2="127.518" y1="340.31" y2="196.227" gradientUnits="userSpaceOnUse"><stop stop-color="#09005D"/><stop offset="1" stop-color="#1A0F91"/></linearGradient><linearGradient id="h" x1="63.8001" x2="277.649" y1="331.699" y2="383.716" gradientUnits="userSpaceOnUse"><stop stop-color="#311944"/><stop offset="1" stop-color="#1A0F91"/></linearGradient><linearGradient id="j" x1="429.474" x2="367.239" y1="24.4175" y2="85.299" gradientUnits="userSpaceOnUse"><stop stop-color="#FF8491"/><stop offset="1" stop-color="#FE7062"/></linearGradient><linearGradient id="l" x1="429.474" x2="367.239" y1="24.4174" y2="85.2989" gradientUnits="userSpaceOnUse"><stop stop-color="#FFD5D3"/><stop offset="1" stop-color="#FFC7C2"/></linearGradient><linearGradient id="n" x1="429.474" x2="367.239" y1="24.4174" y2="85.299" gradientUnits="userSpaceOnUse"><stop stop-color="#FFD5D3"/><stop offset="1" stop-color="#FFC7C2"/></linearGradient><linearGradient id="p" x1="429.474" x2="367.24" y1="24.4175" y2="85.2991" gradientUnits="userSpaceOnUse"><stop stop-color="#FFD5D3"/><stop offset="1" stop-color="#FFC7C2"/></linearGradient><linearGradient id="r" x1="43.1238" x2="26.3172" y1="176.802" y2="194.356" gradientUnits="userSpaceOnUse"><stop stop-color="#09005D"/><stop offset="1" stop-color="#1A0F91"/></linearGradient><linearGradient id="t" x1="20.8288" x2="-10.9617" y1="220.861" y2="244.193" gradientUnits="userSpaceOnUse"><stop stop-color="#09005D"/><stop offset="1" stop-color="#1A0F91"/></linearGradient><linearGradient id="v" x1="72.19" x2="93.7726" y1="134.63" y2="160.295" gradientUnits="userSpaceOnUse"><stop stop-color="#FEBBBA"/><stop offset="1" stop-color="#FF928E"/></linearGradient><linearGradient id="x" x1="179.204" x2="114.261" y1="71.4583" y2="139.108" gradientUnits="userSpaceOnUse"><stop stop-color="#FF8491"/><stop offset="1" stop-color="#FE7062"/></linearGradient><linearGradient id="z" x1="97.3562" x2="54.2162" y1="157.982" y2="98.9639" gradientUnits="userSpaceOnUse"><stop stop-color="#FEBBBA"/><stop offset="1" stop-color="#FF928E"/></linearGradient><linearGradient id="B" x1="123.745" x2="122.156" y1="109.075" y2="94.7736" gradientUnits="userSpaceOnUse"><stop stop-color="#FEBBBA"/><stop offset="1" stop-color="#FF928E"/></linearGradient><linearGradient id="D" x1="115.271" x2="122.275" y1="96.5989" y2="73.4982" gradientUnits="userSpaceOnUse"><stop stop-color="#FEBBBA"/><stop offset="1" stop-color="#FF928E"/></linearGradient><linearGradient id="F" x1="121.591" x2="115.079" y1="54.1825" y2="91.3239" gradientUnits="userSpaceOnUse"><stop stop-color="#09005D"/><stop offset="1" stop-color="#1A0F91"/></linearGradient><linearGradient id="H" x1="122.525" x2="129.529" y1="98.7986" y2="75.6979" gradientUnits="userSpaceOnUse"><stop stop-color="#FEBBBA"/><stop offset="1" stop-color="#FF928E"/></linearGradient><linearGradient id="J" x1="65.2768" x2="32.4495" y1="144.63" y2="144.63" gradientUnits="userSpaceOnUse"><stop stop-color="#09005D"/><stop offset="1" stop-color="#1A0F91"/></linearGradient><linearGradient id="L" x1="61.2925" x2="87.5415" y1="158.98" y2="166.174" gradientUnits="userSpaceOnUse"><stop stop-color="#09005D"/><stop offset="1" stop-color="#1A0F91"/></linearGradient><linearGradient id="N" x1="109.883" x2="99.736" y1="35.0942" y2="191.357" gradientUnits="userSpaceOnUse"><stop stop-color="#E1473D"/><stop offset="1" stop-color="#E9605A"/></linearGradient><linearGradient id="P" x1="128.356" x2="118.209" y1="36.2945" y2="192.557" gradientUnits="userSpaceOnUse"><stop stop-color="#E1473D"/><stop offset="1" stop-color="#E9605A"/></linearGradient><linearGradient id="R" x1="142.101" x2="131.954" y1="37.1868" y2="193.45" gradientUnits="userSpaceOnUse"><stop stop-color="#E1473D"/><stop offset="1" stop-color="#E9605A"/></linearGradient></defs></svg>