<svg xmlns="http://www.w3.org/2000/svg" width="25" height="24" fill="none" viewBox="0 0 25 24"><path fill="url(#a)" d="M12.266 24c6.627 0 12-5.373 12-12s-5.373-12-12-12c-6.628 0-12 5.373-12 12s5.372 12 12 12"/><path fill="#fff" d="m5.254 11.865 8.09-3.303c.81-.337 3.506-1.483 3.506-1.483s1.28-.472 1.146.674c-.067.472-.337 2.157-.607 4.045l-.876 5.46s-.068.81-.674.944c-.607.135-1.55-.472-1.753-.607-.135-.134-2.63-1.685-3.506-2.426-.27-.203-.539-.607.068-1.08a102 102 0 0 0 3.64-3.437c.405-.405.81-1.416-.876-.202L8.49 13.753s-.539.337-1.618.067l-2.224-.741s-.81-.675.606-1.214"/><defs><linearGradient id="a" x1="15.7494" x2="-5.0572" y1="3.78407" y2="52.3294" gradientUnits="userSpaceOnUse"><stop stop-color="#3CA8E0"/><stop offset="1" stop-color="#27A0DB"/></linearGradient></defs></svg>